%TF.GenerationSoftware,KiCad,Pcbnew,8.0.4*%
%TF.CreationDate,2024-11-02T17:54:01+02:00*%
%TF.ProjectId,ledB,6c656442-2e6b-4696-9361-645f70636258,rev?*%
%TF.SameCoordinates,Original*%
%TF.FileFunction,Drillmap*%
%TF.FilePolarity,Positive*%
%FSLAX45Y45*%
G04 Gerber Fmt 4.5, Leading zero omitted, Abs format (unit mm)*
G04 Created by KiCad (PCBNEW 8.0.4) date 2024-11-02 17:54:01*
%MOMM*%
%LPD*%
G01*
G04 APERTURE LIST*
%ADD10C,0.100000*%
%ADD11C,0.200000*%
%ADD12C,0.350000*%
G04 APERTURE END LIST*
D10*
X11431000Y-11557000D02*
G75*
G02*
X10669000Y-11557000I-381000J-1143000D01*
G01*
X10669000Y-11557000D02*
X10669000Y-10795000D01*
X10669000Y-10795000D02*
G75*
G02*
X11431000Y-10795000I381000J1000D01*
G01*
X11431000Y-11557000D02*
X11431000Y-10795000D01*
D11*
D12*
X10875000Y-10575000D02*
X11225000Y-10925000D01*
X11225000Y-10575000D02*
X10875000Y-10925000D01*
D11*
X10100949Y-14221311D02*
X10100949Y-14021311D01*
X10100949Y-14021311D02*
X10148568Y-14021311D01*
X10148568Y-14021311D02*
X10177140Y-14030835D01*
X10177140Y-14030835D02*
X10196187Y-14049883D01*
X10196187Y-14049883D02*
X10205711Y-14068930D01*
X10205711Y-14068930D02*
X10215235Y-14107026D01*
X10215235Y-14107026D02*
X10215235Y-14135597D01*
X10215235Y-14135597D02*
X10205711Y-14173692D01*
X10205711Y-14173692D02*
X10196187Y-14192740D01*
X10196187Y-14192740D02*
X10177140Y-14211788D01*
X10177140Y-14211788D02*
X10148568Y-14221311D01*
X10148568Y-14221311D02*
X10100949Y-14221311D01*
X10300949Y-14221311D02*
X10300949Y-14087978D01*
X10300949Y-14126073D02*
X10310473Y-14107026D01*
X10310473Y-14107026D02*
X10319997Y-14097502D01*
X10319997Y-14097502D02*
X10339044Y-14087978D01*
X10339044Y-14087978D02*
X10358092Y-14087978D01*
X10424759Y-14221311D02*
X10424759Y-14087978D01*
X10424759Y-14021311D02*
X10415235Y-14030835D01*
X10415235Y-14030835D02*
X10424759Y-14040359D01*
X10424759Y-14040359D02*
X10434282Y-14030835D01*
X10434282Y-14030835D02*
X10424759Y-14021311D01*
X10424759Y-14021311D02*
X10424759Y-14040359D01*
X10548568Y-14221311D02*
X10529521Y-14211788D01*
X10529521Y-14211788D02*
X10519997Y-14192740D01*
X10519997Y-14192740D02*
X10519997Y-14021311D01*
X10653330Y-14221311D02*
X10634282Y-14211788D01*
X10634282Y-14211788D02*
X10624759Y-14192740D01*
X10624759Y-14192740D02*
X10624759Y-14021311D01*
X10881902Y-14221311D02*
X10881902Y-14021311D01*
X10881902Y-14021311D02*
X10948568Y-14164169D01*
X10948568Y-14164169D02*
X11015235Y-14021311D01*
X11015235Y-14021311D02*
X11015235Y-14221311D01*
X11196187Y-14221311D02*
X11196187Y-14116550D01*
X11196187Y-14116550D02*
X11186663Y-14097502D01*
X11186663Y-14097502D02*
X11167616Y-14087978D01*
X11167616Y-14087978D02*
X11129521Y-14087978D01*
X11129521Y-14087978D02*
X11110473Y-14097502D01*
X11196187Y-14211788D02*
X11177140Y-14221311D01*
X11177140Y-14221311D02*
X11129521Y-14221311D01*
X11129521Y-14221311D02*
X11110473Y-14211788D01*
X11110473Y-14211788D02*
X11100949Y-14192740D01*
X11100949Y-14192740D02*
X11100949Y-14173692D01*
X11100949Y-14173692D02*
X11110473Y-14154645D01*
X11110473Y-14154645D02*
X11129521Y-14145121D01*
X11129521Y-14145121D02*
X11177140Y-14145121D01*
X11177140Y-14145121D02*
X11196187Y-14135597D01*
X11291425Y-14087978D02*
X11291425Y-14287978D01*
X11291425Y-14097502D02*
X11310473Y-14087978D01*
X11310473Y-14087978D02*
X11348568Y-14087978D01*
X11348568Y-14087978D02*
X11367616Y-14097502D01*
X11367616Y-14097502D02*
X11377140Y-14107026D01*
X11377140Y-14107026D02*
X11386663Y-14126073D01*
X11386663Y-14126073D02*
X11386663Y-14183216D01*
X11386663Y-14183216D02*
X11377140Y-14202264D01*
X11377140Y-14202264D02*
X11367616Y-14211788D01*
X11367616Y-14211788D02*
X11348568Y-14221311D01*
X11348568Y-14221311D02*
X11310473Y-14221311D01*
X11310473Y-14221311D02*
X11291425Y-14211788D01*
X11472378Y-14202264D02*
X11481901Y-14211788D01*
X11481901Y-14211788D02*
X11472378Y-14221311D01*
X11472378Y-14221311D02*
X11462854Y-14211788D01*
X11462854Y-14211788D02*
X11472378Y-14202264D01*
X11472378Y-14202264D02*
X11472378Y-14221311D01*
X11472378Y-14097502D02*
X11481901Y-14107026D01*
X11481901Y-14107026D02*
X11472378Y-14116550D01*
X11472378Y-14116550D02*
X11462854Y-14107026D01*
X11462854Y-14107026D02*
X11472378Y-14097502D01*
X11472378Y-14097502D02*
X11472378Y-14116550D01*
X9640172Y-14449828D02*
X9840172Y-14649828D01*
X9840172Y-14449828D02*
X9640172Y-14649828D01*
X10081902Y-14441311D02*
X10205711Y-14441311D01*
X10205711Y-14441311D02*
X10139044Y-14517502D01*
X10139044Y-14517502D02*
X10167616Y-14517502D01*
X10167616Y-14517502D02*
X10186663Y-14527026D01*
X10186663Y-14527026D02*
X10196187Y-14536550D01*
X10196187Y-14536550D02*
X10205711Y-14555597D01*
X10205711Y-14555597D02*
X10205711Y-14603216D01*
X10205711Y-14603216D02*
X10196187Y-14622264D01*
X10196187Y-14622264D02*
X10186663Y-14631788D01*
X10186663Y-14631788D02*
X10167616Y-14641311D01*
X10167616Y-14641311D02*
X10110473Y-14641311D01*
X10110473Y-14641311D02*
X10091425Y-14631788D01*
X10091425Y-14631788D02*
X10081902Y-14622264D01*
X10291425Y-14622264D02*
X10300949Y-14631788D01*
X10300949Y-14631788D02*
X10291425Y-14641311D01*
X10291425Y-14641311D02*
X10281902Y-14631788D01*
X10281902Y-14631788D02*
X10291425Y-14622264D01*
X10291425Y-14622264D02*
X10291425Y-14641311D01*
X10481902Y-14441311D02*
X10386663Y-14441311D01*
X10386663Y-14441311D02*
X10377140Y-14536550D01*
X10377140Y-14536550D02*
X10386663Y-14527026D01*
X10386663Y-14527026D02*
X10405711Y-14517502D01*
X10405711Y-14517502D02*
X10453330Y-14517502D01*
X10453330Y-14517502D02*
X10472378Y-14527026D01*
X10472378Y-14527026D02*
X10481902Y-14536550D01*
X10481902Y-14536550D02*
X10491425Y-14555597D01*
X10491425Y-14555597D02*
X10491425Y-14603216D01*
X10491425Y-14603216D02*
X10481902Y-14622264D01*
X10481902Y-14622264D02*
X10472378Y-14631788D01*
X10472378Y-14631788D02*
X10453330Y-14641311D01*
X10453330Y-14641311D02*
X10405711Y-14641311D01*
X10405711Y-14641311D02*
X10386663Y-14631788D01*
X10386663Y-14631788D02*
X10377140Y-14622264D01*
X10615235Y-14441311D02*
X10634283Y-14441311D01*
X10634283Y-14441311D02*
X10653330Y-14450835D01*
X10653330Y-14450835D02*
X10662854Y-14460359D01*
X10662854Y-14460359D02*
X10672378Y-14479407D01*
X10672378Y-14479407D02*
X10681902Y-14517502D01*
X10681902Y-14517502D02*
X10681902Y-14565121D01*
X10681902Y-14565121D02*
X10672378Y-14603216D01*
X10672378Y-14603216D02*
X10662854Y-14622264D01*
X10662854Y-14622264D02*
X10653330Y-14631788D01*
X10653330Y-14631788D02*
X10634283Y-14641311D01*
X10634283Y-14641311D02*
X10615235Y-14641311D01*
X10615235Y-14641311D02*
X10596187Y-14631788D01*
X10596187Y-14631788D02*
X10586663Y-14622264D01*
X10586663Y-14622264D02*
X10577140Y-14603216D01*
X10577140Y-14603216D02*
X10567616Y-14565121D01*
X10567616Y-14565121D02*
X10567616Y-14517502D01*
X10567616Y-14517502D02*
X10577140Y-14479407D01*
X10577140Y-14479407D02*
X10586663Y-14460359D01*
X10586663Y-14460359D02*
X10596187Y-14450835D01*
X10596187Y-14450835D02*
X10615235Y-14441311D01*
X10805711Y-14441311D02*
X10824759Y-14441311D01*
X10824759Y-14441311D02*
X10843806Y-14450835D01*
X10843806Y-14450835D02*
X10853330Y-14460359D01*
X10853330Y-14460359D02*
X10862854Y-14479407D01*
X10862854Y-14479407D02*
X10872378Y-14517502D01*
X10872378Y-14517502D02*
X10872378Y-14565121D01*
X10872378Y-14565121D02*
X10862854Y-14603216D01*
X10862854Y-14603216D02*
X10853330Y-14622264D01*
X10853330Y-14622264D02*
X10843806Y-14631788D01*
X10843806Y-14631788D02*
X10824759Y-14641311D01*
X10824759Y-14641311D02*
X10805711Y-14641311D01*
X10805711Y-14641311D02*
X10786663Y-14631788D01*
X10786663Y-14631788D02*
X10777140Y-14622264D01*
X10777140Y-14622264D02*
X10767616Y-14603216D01*
X10767616Y-14603216D02*
X10758092Y-14565121D01*
X10758092Y-14565121D02*
X10758092Y-14517502D01*
X10758092Y-14517502D02*
X10767616Y-14479407D01*
X10767616Y-14479407D02*
X10777140Y-14460359D01*
X10777140Y-14460359D02*
X10786663Y-14450835D01*
X10786663Y-14450835D02*
X10805711Y-14441311D01*
X10958092Y-14641311D02*
X10958092Y-14507978D01*
X10958092Y-14527026D02*
X10967616Y-14517502D01*
X10967616Y-14517502D02*
X10986663Y-14507978D01*
X10986663Y-14507978D02*
X11015235Y-14507978D01*
X11015235Y-14507978D02*
X11034283Y-14517502D01*
X11034283Y-14517502D02*
X11043806Y-14536550D01*
X11043806Y-14536550D02*
X11043806Y-14641311D01*
X11043806Y-14536550D02*
X11053330Y-14517502D01*
X11053330Y-14517502D02*
X11072378Y-14507978D01*
X11072378Y-14507978D02*
X11100949Y-14507978D01*
X11100949Y-14507978D02*
X11119997Y-14517502D01*
X11119997Y-14517502D02*
X11129521Y-14536550D01*
X11129521Y-14536550D02*
X11129521Y-14641311D01*
X11224759Y-14641311D02*
X11224759Y-14507978D01*
X11224759Y-14527026D02*
X11234282Y-14517502D01*
X11234282Y-14517502D02*
X11253330Y-14507978D01*
X11253330Y-14507978D02*
X11281902Y-14507978D01*
X11281902Y-14507978D02*
X11300949Y-14517502D01*
X11300949Y-14517502D02*
X11310473Y-14536550D01*
X11310473Y-14536550D02*
X11310473Y-14641311D01*
X11310473Y-14536550D02*
X11319997Y-14517502D01*
X11319997Y-14517502D02*
X11339044Y-14507978D01*
X11339044Y-14507978D02*
X11367616Y-14507978D01*
X11367616Y-14507978D02*
X11386663Y-14517502D01*
X11386663Y-14517502D02*
X11396187Y-14536550D01*
X11396187Y-14536550D02*
X11396187Y-14641311D01*
X11786663Y-14431788D02*
X11615235Y-14688930D01*
X12043806Y-14441311D02*
X12062854Y-14441311D01*
X12062854Y-14441311D02*
X12081902Y-14450835D01*
X12081902Y-14450835D02*
X12091425Y-14460359D01*
X12091425Y-14460359D02*
X12100949Y-14479407D01*
X12100949Y-14479407D02*
X12110473Y-14517502D01*
X12110473Y-14517502D02*
X12110473Y-14565121D01*
X12110473Y-14565121D02*
X12100949Y-14603216D01*
X12100949Y-14603216D02*
X12091425Y-14622264D01*
X12091425Y-14622264D02*
X12081902Y-14631788D01*
X12081902Y-14631788D02*
X12062854Y-14641311D01*
X12062854Y-14641311D02*
X12043806Y-14641311D01*
X12043806Y-14641311D02*
X12024759Y-14631788D01*
X12024759Y-14631788D02*
X12015235Y-14622264D01*
X12015235Y-14622264D02*
X12005711Y-14603216D01*
X12005711Y-14603216D02*
X11996187Y-14565121D01*
X11996187Y-14565121D02*
X11996187Y-14517502D01*
X11996187Y-14517502D02*
X12005711Y-14479407D01*
X12005711Y-14479407D02*
X12015235Y-14460359D01*
X12015235Y-14460359D02*
X12024759Y-14450835D01*
X12024759Y-14450835D02*
X12043806Y-14441311D01*
X12196187Y-14622264D02*
X12205711Y-14631788D01*
X12205711Y-14631788D02*
X12196187Y-14641311D01*
X12196187Y-14641311D02*
X12186664Y-14631788D01*
X12186664Y-14631788D02*
X12196187Y-14622264D01*
X12196187Y-14622264D02*
X12196187Y-14641311D01*
X12396187Y-14641311D02*
X12281902Y-14641311D01*
X12339044Y-14641311D02*
X12339044Y-14441311D01*
X12339044Y-14441311D02*
X12319997Y-14469883D01*
X12319997Y-14469883D02*
X12300949Y-14488930D01*
X12300949Y-14488930D02*
X12281902Y-14498454D01*
X12462854Y-14441311D02*
X12586664Y-14441311D01*
X12586664Y-14441311D02*
X12519997Y-14517502D01*
X12519997Y-14517502D02*
X12548568Y-14517502D01*
X12548568Y-14517502D02*
X12567616Y-14527026D01*
X12567616Y-14527026D02*
X12577140Y-14536550D01*
X12577140Y-14536550D02*
X12586664Y-14555597D01*
X12586664Y-14555597D02*
X12586664Y-14603216D01*
X12586664Y-14603216D02*
X12577140Y-14622264D01*
X12577140Y-14622264D02*
X12567616Y-14631788D01*
X12567616Y-14631788D02*
X12548568Y-14641311D01*
X12548568Y-14641311D02*
X12491425Y-14641311D01*
X12491425Y-14641311D02*
X12472378Y-14631788D01*
X12472378Y-14631788D02*
X12462854Y-14622264D01*
X12653330Y-14441311D02*
X12786664Y-14441311D01*
X12786664Y-14441311D02*
X12700949Y-14641311D01*
X12891425Y-14527026D02*
X12872378Y-14517502D01*
X12872378Y-14517502D02*
X12862854Y-14507978D01*
X12862854Y-14507978D02*
X12853330Y-14488930D01*
X12853330Y-14488930D02*
X12853330Y-14479407D01*
X12853330Y-14479407D02*
X12862854Y-14460359D01*
X12862854Y-14460359D02*
X12872378Y-14450835D01*
X12872378Y-14450835D02*
X12891425Y-14441311D01*
X12891425Y-14441311D02*
X12929521Y-14441311D01*
X12929521Y-14441311D02*
X12948568Y-14450835D01*
X12948568Y-14450835D02*
X12958092Y-14460359D01*
X12958092Y-14460359D02*
X12967616Y-14479407D01*
X12967616Y-14479407D02*
X12967616Y-14488930D01*
X12967616Y-14488930D02*
X12958092Y-14507978D01*
X12958092Y-14507978D02*
X12948568Y-14517502D01*
X12948568Y-14517502D02*
X12929521Y-14527026D01*
X12929521Y-14527026D02*
X12891425Y-14527026D01*
X12891425Y-14527026D02*
X12872378Y-14536550D01*
X12872378Y-14536550D02*
X12862854Y-14546073D01*
X12862854Y-14546073D02*
X12853330Y-14565121D01*
X12853330Y-14565121D02*
X12853330Y-14603216D01*
X12853330Y-14603216D02*
X12862854Y-14622264D01*
X12862854Y-14622264D02*
X12872378Y-14631788D01*
X12872378Y-14631788D02*
X12891425Y-14641311D01*
X12891425Y-14641311D02*
X12929521Y-14641311D01*
X12929521Y-14641311D02*
X12948568Y-14631788D01*
X12948568Y-14631788D02*
X12958092Y-14622264D01*
X12958092Y-14622264D02*
X12967616Y-14603216D01*
X12967616Y-14603216D02*
X12967616Y-14565121D01*
X12967616Y-14565121D02*
X12958092Y-14546073D01*
X12958092Y-14546073D02*
X12948568Y-14536550D01*
X12948568Y-14536550D02*
X12929521Y-14527026D01*
X13043806Y-14441311D02*
X13043806Y-14479407D01*
X13119997Y-14441311D02*
X13119997Y-14479407D01*
X13415235Y-14717502D02*
X13405711Y-14707978D01*
X13405711Y-14707978D02*
X13386664Y-14679407D01*
X13386664Y-14679407D02*
X13377140Y-14660359D01*
X13377140Y-14660359D02*
X13367616Y-14631788D01*
X13367616Y-14631788D02*
X13358092Y-14584169D01*
X13358092Y-14584169D02*
X13358092Y-14546073D01*
X13358092Y-14546073D02*
X13367616Y-14498454D01*
X13367616Y-14498454D02*
X13377140Y-14469883D01*
X13377140Y-14469883D02*
X13386664Y-14450835D01*
X13386664Y-14450835D02*
X13405711Y-14422264D01*
X13405711Y-14422264D02*
X13415235Y-14412740D01*
X13596187Y-14641311D02*
X13481902Y-14641311D01*
X13539045Y-14641311D02*
X13539045Y-14441311D01*
X13539045Y-14441311D02*
X13519997Y-14469883D01*
X13519997Y-14469883D02*
X13500949Y-14488930D01*
X13500949Y-14488930D02*
X13481902Y-14498454D01*
X13834283Y-14641311D02*
X13834283Y-14441311D01*
X13919997Y-14641311D02*
X13919997Y-14536550D01*
X13919997Y-14536550D02*
X13910473Y-14517502D01*
X13910473Y-14517502D02*
X13891426Y-14507978D01*
X13891426Y-14507978D02*
X13862854Y-14507978D01*
X13862854Y-14507978D02*
X13843807Y-14517502D01*
X13843807Y-14517502D02*
X13834283Y-14527026D01*
X14043807Y-14641311D02*
X14024759Y-14631788D01*
X14024759Y-14631788D02*
X14015235Y-14622264D01*
X14015235Y-14622264D02*
X14005711Y-14603216D01*
X14005711Y-14603216D02*
X14005711Y-14546073D01*
X14005711Y-14546073D02*
X14015235Y-14527026D01*
X14015235Y-14527026D02*
X14024759Y-14517502D01*
X14024759Y-14517502D02*
X14043807Y-14507978D01*
X14043807Y-14507978D02*
X14072378Y-14507978D01*
X14072378Y-14507978D02*
X14091426Y-14517502D01*
X14091426Y-14517502D02*
X14100949Y-14527026D01*
X14100949Y-14527026D02*
X14110473Y-14546073D01*
X14110473Y-14546073D02*
X14110473Y-14603216D01*
X14110473Y-14603216D02*
X14100949Y-14622264D01*
X14100949Y-14622264D02*
X14091426Y-14631788D01*
X14091426Y-14631788D02*
X14072378Y-14641311D01*
X14072378Y-14641311D02*
X14043807Y-14641311D01*
X14224759Y-14641311D02*
X14205711Y-14631788D01*
X14205711Y-14631788D02*
X14196188Y-14612740D01*
X14196188Y-14612740D02*
X14196188Y-14441311D01*
X14377140Y-14631788D02*
X14358092Y-14641311D01*
X14358092Y-14641311D02*
X14319997Y-14641311D01*
X14319997Y-14641311D02*
X14300949Y-14631788D01*
X14300949Y-14631788D02*
X14291426Y-14612740D01*
X14291426Y-14612740D02*
X14291426Y-14536550D01*
X14291426Y-14536550D02*
X14300949Y-14517502D01*
X14300949Y-14517502D02*
X14319997Y-14507978D01*
X14319997Y-14507978D02*
X14358092Y-14507978D01*
X14358092Y-14507978D02*
X14377140Y-14517502D01*
X14377140Y-14517502D02*
X14386664Y-14536550D01*
X14386664Y-14536550D02*
X14386664Y-14555597D01*
X14386664Y-14555597D02*
X14291426Y-14574645D01*
X14453330Y-14717502D02*
X14462854Y-14707978D01*
X14462854Y-14707978D02*
X14481902Y-14679407D01*
X14481902Y-14679407D02*
X14491426Y-14660359D01*
X14491426Y-14660359D02*
X14500949Y-14631788D01*
X14500949Y-14631788D02*
X14510473Y-14584169D01*
X14510473Y-14584169D02*
X14510473Y-14546073D01*
X14510473Y-14546073D02*
X14500949Y-14498454D01*
X14500949Y-14498454D02*
X14491426Y-14469883D01*
X14491426Y-14469883D02*
X14481902Y-14450835D01*
X14481902Y-14450835D02*
X14462854Y-14422264D01*
X14462854Y-14422264D02*
X14453330Y-14412740D01*
X14815235Y-14717502D02*
X14805711Y-14707978D01*
X14805711Y-14707978D02*
X14786664Y-14679407D01*
X14786664Y-14679407D02*
X14777140Y-14660359D01*
X14777140Y-14660359D02*
X14767616Y-14631788D01*
X14767616Y-14631788D02*
X14758092Y-14584169D01*
X14758092Y-14584169D02*
X14758092Y-14546073D01*
X14758092Y-14546073D02*
X14767616Y-14498454D01*
X14767616Y-14498454D02*
X14777140Y-14469883D01*
X14777140Y-14469883D02*
X14786664Y-14450835D01*
X14786664Y-14450835D02*
X14805711Y-14422264D01*
X14805711Y-14422264D02*
X14815235Y-14412740D01*
X14891426Y-14507978D02*
X14891426Y-14641311D01*
X14891426Y-14527026D02*
X14900949Y-14517502D01*
X14900949Y-14517502D02*
X14919997Y-14507978D01*
X14919997Y-14507978D02*
X14948569Y-14507978D01*
X14948569Y-14507978D02*
X14967616Y-14517502D01*
X14967616Y-14517502D02*
X14977140Y-14536550D01*
X14977140Y-14536550D02*
X14977140Y-14641311D01*
X15100949Y-14641311D02*
X15081902Y-14631788D01*
X15081902Y-14631788D02*
X15072378Y-14622264D01*
X15072378Y-14622264D02*
X15062854Y-14603216D01*
X15062854Y-14603216D02*
X15062854Y-14546073D01*
X15062854Y-14546073D02*
X15072378Y-14527026D01*
X15072378Y-14527026D02*
X15081902Y-14517502D01*
X15081902Y-14517502D02*
X15100949Y-14507978D01*
X15100949Y-14507978D02*
X15129521Y-14507978D01*
X15129521Y-14507978D02*
X15148569Y-14517502D01*
X15148569Y-14517502D02*
X15158092Y-14527026D01*
X15158092Y-14527026D02*
X15167616Y-14546073D01*
X15167616Y-14546073D02*
X15167616Y-14603216D01*
X15167616Y-14603216D02*
X15158092Y-14622264D01*
X15158092Y-14622264D02*
X15148569Y-14631788D01*
X15148569Y-14631788D02*
X15129521Y-14641311D01*
X15129521Y-14641311D02*
X15100949Y-14641311D01*
X15224759Y-14507978D02*
X15300949Y-14507978D01*
X15253330Y-14441311D02*
X15253330Y-14612740D01*
X15253330Y-14612740D02*
X15262854Y-14631788D01*
X15262854Y-14631788D02*
X15281902Y-14641311D01*
X15281902Y-14641311D02*
X15300949Y-14641311D01*
X15519997Y-14507978D02*
X15519997Y-14707978D01*
X15519997Y-14517502D02*
X15539045Y-14507978D01*
X15539045Y-14507978D02*
X15577140Y-14507978D01*
X15577140Y-14507978D02*
X15596188Y-14517502D01*
X15596188Y-14517502D02*
X15605711Y-14527026D01*
X15605711Y-14527026D02*
X15615235Y-14546073D01*
X15615235Y-14546073D02*
X15615235Y-14603216D01*
X15615235Y-14603216D02*
X15605711Y-14622264D01*
X15605711Y-14622264D02*
X15596188Y-14631788D01*
X15596188Y-14631788D02*
X15577140Y-14641311D01*
X15577140Y-14641311D02*
X15539045Y-14641311D01*
X15539045Y-14641311D02*
X15519997Y-14631788D01*
X15729521Y-14641311D02*
X15710473Y-14631788D01*
X15710473Y-14631788D02*
X15700950Y-14612740D01*
X15700950Y-14612740D02*
X15700950Y-14441311D01*
X15891426Y-14641311D02*
X15891426Y-14536550D01*
X15891426Y-14536550D02*
X15881902Y-14517502D01*
X15881902Y-14517502D02*
X15862854Y-14507978D01*
X15862854Y-14507978D02*
X15824759Y-14507978D01*
X15824759Y-14507978D02*
X15805711Y-14517502D01*
X15891426Y-14631788D02*
X15872378Y-14641311D01*
X15872378Y-14641311D02*
X15824759Y-14641311D01*
X15824759Y-14641311D02*
X15805711Y-14631788D01*
X15805711Y-14631788D02*
X15796188Y-14612740D01*
X15796188Y-14612740D02*
X15796188Y-14593692D01*
X15796188Y-14593692D02*
X15805711Y-14574645D01*
X15805711Y-14574645D02*
X15824759Y-14565121D01*
X15824759Y-14565121D02*
X15872378Y-14565121D01*
X15872378Y-14565121D02*
X15891426Y-14555597D01*
X15958092Y-14507978D02*
X16034283Y-14507978D01*
X15986664Y-14441311D02*
X15986664Y-14612740D01*
X15986664Y-14612740D02*
X15996188Y-14631788D01*
X15996188Y-14631788D02*
X16015235Y-14641311D01*
X16015235Y-14641311D02*
X16034283Y-14641311D01*
X16177140Y-14631788D02*
X16158092Y-14641311D01*
X16158092Y-14641311D02*
X16119997Y-14641311D01*
X16119997Y-14641311D02*
X16100950Y-14631788D01*
X16100950Y-14631788D02*
X16091426Y-14612740D01*
X16091426Y-14612740D02*
X16091426Y-14536550D01*
X16091426Y-14536550D02*
X16100950Y-14517502D01*
X16100950Y-14517502D02*
X16119997Y-14507978D01*
X16119997Y-14507978D02*
X16158092Y-14507978D01*
X16158092Y-14507978D02*
X16177140Y-14517502D01*
X16177140Y-14517502D02*
X16186664Y-14536550D01*
X16186664Y-14536550D02*
X16186664Y-14555597D01*
X16186664Y-14555597D02*
X16091426Y-14574645D01*
X16358092Y-14641311D02*
X16358092Y-14441311D01*
X16358092Y-14631788D02*
X16339045Y-14641311D01*
X16339045Y-14641311D02*
X16300950Y-14641311D01*
X16300950Y-14641311D02*
X16281902Y-14631788D01*
X16281902Y-14631788D02*
X16272378Y-14622264D01*
X16272378Y-14622264D02*
X16262854Y-14603216D01*
X16262854Y-14603216D02*
X16262854Y-14546073D01*
X16262854Y-14546073D02*
X16272378Y-14527026D01*
X16272378Y-14527026D02*
X16281902Y-14517502D01*
X16281902Y-14517502D02*
X16300950Y-14507978D01*
X16300950Y-14507978D02*
X16339045Y-14507978D01*
X16339045Y-14507978D02*
X16358092Y-14517502D01*
X16434283Y-14717502D02*
X16443807Y-14707978D01*
X16443807Y-14707978D02*
X16462854Y-14679407D01*
X16462854Y-14679407D02*
X16472378Y-14660359D01*
X16472378Y-14660359D02*
X16481902Y-14631788D01*
X16481902Y-14631788D02*
X16491426Y-14584169D01*
X16491426Y-14584169D02*
X16491426Y-14546073D01*
X16491426Y-14546073D02*
X16481902Y-14498454D01*
X16481902Y-14498454D02*
X16472378Y-14469883D01*
X16472378Y-14469883D02*
X16462854Y-14450835D01*
X16462854Y-14450835D02*
X16443807Y-14422264D01*
X16443807Y-14422264D02*
X16434283Y-14412740D01*
M02*
