%TF.GenerationSoftware,KiCad,Pcbnew,8.0.4*%
%TF.CreationDate,2024-11-02T17:54:01+02:00*%
%TF.ProjectId,ledB,6c656442-2e6b-4696-9361-645f70636258,rev?*%
%TF.SameCoordinates,Original*%
%TF.FileFunction,Drillmap*%
%TF.FilePolarity,Positive*%
%FSLAX45Y45*%
G04 Gerber Fmt 4.5, Leading zero omitted, Abs format (unit mm)*
G04 Created by KiCad (PCBNEW 8.0.4) date 2024-11-02 17:54:01*
%MOMM*%
%LPD*%
G01*
G04 APERTURE LIST*
%ADD10C,0.100000*%
%ADD11C,0.200000*%
%ADD12C,0.106680*%
G04 APERTURE END LIST*
D10*
X11431000Y-11557000D02*
G75*
G02*
X10669000Y-11557000I-381000J-1143000D01*
G01*
X10669000Y-11557000D02*
X10669000Y-10795000D01*
X10669000Y-10795000D02*
G75*
G02*
X11431000Y-10795000I381000J1000D01*
G01*
X11431000Y-11557000D02*
X11431000Y-10795000D01*
D11*
D10*
X10880000Y-12180000D02*
X10920000Y-12220000D01*
X10920000Y-12180000D02*
X10880000Y-12220000D01*
X10918500Y-13400000D02*
G75*
G02*
X10828500Y-13400000I-45000J0D01*
G01*
X10828500Y-13400000D02*
G75*
G02*
X10918500Y-13400000I45000J0D01*
G01*
X11172500Y-13400000D02*
G75*
G02*
X11082500Y-13400000I-45000J0D01*
G01*
X11082500Y-13400000D02*
G75*
G02*
X11172500Y-13400000I45000J0D01*
G01*
X10946000Y-11250000D02*
X10946000Y-11350000D01*
X10896000Y-11300000D02*
X10996000Y-11300000D01*
X11200000Y-11250000D02*
X11200000Y-11350000D01*
X11150000Y-11300000D02*
X11250000Y-11300000D01*
D12*
X11087717Y-11687717D02*
X11087717Y-11612283D01*
X11012283Y-11612283D01*
X11012283Y-11687717D01*
X11087717Y-11687717D01*
X11087717Y-13737717D02*
X11087717Y-13662283D01*
X11012283Y-13662283D01*
X11012283Y-13737717D01*
X11087717Y-13737717D01*
D11*
X10100949Y-14221311D02*
X10100949Y-14021311D01*
X10100949Y-14021311D02*
X10148568Y-14021311D01*
X10148568Y-14021311D02*
X10177140Y-14030835D01*
X10177140Y-14030835D02*
X10196187Y-14049883D01*
X10196187Y-14049883D02*
X10205711Y-14068930D01*
X10205711Y-14068930D02*
X10215235Y-14107026D01*
X10215235Y-14107026D02*
X10215235Y-14135597D01*
X10215235Y-14135597D02*
X10205711Y-14173692D01*
X10205711Y-14173692D02*
X10196187Y-14192740D01*
X10196187Y-14192740D02*
X10177140Y-14211788D01*
X10177140Y-14211788D02*
X10148568Y-14221311D01*
X10148568Y-14221311D02*
X10100949Y-14221311D01*
X10300949Y-14221311D02*
X10300949Y-14087978D01*
X10300949Y-14126073D02*
X10310473Y-14107026D01*
X10310473Y-14107026D02*
X10319997Y-14097502D01*
X10319997Y-14097502D02*
X10339044Y-14087978D01*
X10339044Y-14087978D02*
X10358092Y-14087978D01*
X10424759Y-14221311D02*
X10424759Y-14087978D01*
X10424759Y-14021311D02*
X10415235Y-14030835D01*
X10415235Y-14030835D02*
X10424759Y-14040359D01*
X10424759Y-14040359D02*
X10434282Y-14030835D01*
X10434282Y-14030835D02*
X10424759Y-14021311D01*
X10424759Y-14021311D02*
X10424759Y-14040359D01*
X10548568Y-14221311D02*
X10529521Y-14211788D01*
X10529521Y-14211788D02*
X10519997Y-14192740D01*
X10519997Y-14192740D02*
X10519997Y-14021311D01*
X10653330Y-14221311D02*
X10634282Y-14211788D01*
X10634282Y-14211788D02*
X10624759Y-14192740D01*
X10624759Y-14192740D02*
X10624759Y-14021311D01*
X10881902Y-14221311D02*
X10881902Y-14021311D01*
X10881902Y-14021311D02*
X10948568Y-14164169D01*
X10948568Y-14164169D02*
X11015235Y-14021311D01*
X11015235Y-14021311D02*
X11015235Y-14221311D01*
X11196187Y-14221311D02*
X11196187Y-14116550D01*
X11196187Y-14116550D02*
X11186663Y-14097502D01*
X11186663Y-14097502D02*
X11167616Y-14087978D01*
X11167616Y-14087978D02*
X11129521Y-14087978D01*
X11129521Y-14087978D02*
X11110473Y-14097502D01*
X11196187Y-14211788D02*
X11177140Y-14221311D01*
X11177140Y-14221311D02*
X11129521Y-14221311D01*
X11129521Y-14221311D02*
X11110473Y-14211788D01*
X11110473Y-14211788D02*
X11100949Y-14192740D01*
X11100949Y-14192740D02*
X11100949Y-14173692D01*
X11100949Y-14173692D02*
X11110473Y-14154645D01*
X11110473Y-14154645D02*
X11129521Y-14145121D01*
X11129521Y-14145121D02*
X11177140Y-14145121D01*
X11177140Y-14145121D02*
X11196187Y-14135597D01*
X11291425Y-14087978D02*
X11291425Y-14287978D01*
X11291425Y-14097502D02*
X11310473Y-14087978D01*
X11310473Y-14087978D02*
X11348568Y-14087978D01*
X11348568Y-14087978D02*
X11367616Y-14097502D01*
X11367616Y-14097502D02*
X11377140Y-14107026D01*
X11377140Y-14107026D02*
X11386663Y-14126073D01*
X11386663Y-14126073D02*
X11386663Y-14183216D01*
X11386663Y-14183216D02*
X11377140Y-14202264D01*
X11377140Y-14202264D02*
X11367616Y-14211788D01*
X11367616Y-14211788D02*
X11348568Y-14221311D01*
X11348568Y-14221311D02*
X11310473Y-14221311D01*
X11310473Y-14221311D02*
X11291425Y-14211788D01*
X11472378Y-14202264D02*
X11481901Y-14211788D01*
X11481901Y-14211788D02*
X11472378Y-14221311D01*
X11472378Y-14221311D02*
X11462854Y-14211788D01*
X11462854Y-14211788D02*
X11472378Y-14202264D01*
X11472378Y-14202264D02*
X11472378Y-14221311D01*
X11472378Y-14097502D02*
X11481901Y-14107026D01*
X11481901Y-14107026D02*
X11472378Y-14116550D01*
X11472378Y-14116550D02*
X11462854Y-14107026D01*
X11462854Y-14107026D02*
X11472378Y-14097502D01*
X11472378Y-14097502D02*
X11472378Y-14116550D01*
D10*
X9800172Y-14529828D02*
X9840172Y-14569828D01*
X9840172Y-14529828D02*
X9800172Y-14569828D01*
D11*
X10139044Y-14441311D02*
X10158092Y-14441311D01*
X10158092Y-14441311D02*
X10177140Y-14450835D01*
X10177140Y-14450835D02*
X10186663Y-14460359D01*
X10186663Y-14460359D02*
X10196187Y-14479407D01*
X10196187Y-14479407D02*
X10205711Y-14517502D01*
X10205711Y-14517502D02*
X10205711Y-14565121D01*
X10205711Y-14565121D02*
X10196187Y-14603216D01*
X10196187Y-14603216D02*
X10186663Y-14622264D01*
X10186663Y-14622264D02*
X10177140Y-14631788D01*
X10177140Y-14631788D02*
X10158092Y-14641311D01*
X10158092Y-14641311D02*
X10139044Y-14641311D01*
X10139044Y-14641311D02*
X10119997Y-14631788D01*
X10119997Y-14631788D02*
X10110473Y-14622264D01*
X10110473Y-14622264D02*
X10100949Y-14603216D01*
X10100949Y-14603216D02*
X10091425Y-14565121D01*
X10091425Y-14565121D02*
X10091425Y-14517502D01*
X10091425Y-14517502D02*
X10100949Y-14479407D01*
X10100949Y-14479407D02*
X10110473Y-14460359D01*
X10110473Y-14460359D02*
X10119997Y-14450835D01*
X10119997Y-14450835D02*
X10139044Y-14441311D01*
X10291425Y-14622264D02*
X10300949Y-14631788D01*
X10300949Y-14631788D02*
X10291425Y-14641311D01*
X10291425Y-14641311D02*
X10281902Y-14631788D01*
X10281902Y-14631788D02*
X10291425Y-14622264D01*
X10291425Y-14622264D02*
X10291425Y-14641311D01*
X10472378Y-14507978D02*
X10472378Y-14641311D01*
X10424759Y-14431788D02*
X10377140Y-14574645D01*
X10377140Y-14574645D02*
X10500949Y-14574645D01*
X10615235Y-14441311D02*
X10634283Y-14441311D01*
X10634283Y-14441311D02*
X10653330Y-14450835D01*
X10653330Y-14450835D02*
X10662854Y-14460359D01*
X10662854Y-14460359D02*
X10672378Y-14479407D01*
X10672378Y-14479407D02*
X10681902Y-14517502D01*
X10681902Y-14517502D02*
X10681902Y-14565121D01*
X10681902Y-14565121D02*
X10672378Y-14603216D01*
X10672378Y-14603216D02*
X10662854Y-14622264D01*
X10662854Y-14622264D02*
X10653330Y-14631788D01*
X10653330Y-14631788D02*
X10634283Y-14641311D01*
X10634283Y-14641311D02*
X10615235Y-14641311D01*
X10615235Y-14641311D02*
X10596187Y-14631788D01*
X10596187Y-14631788D02*
X10586663Y-14622264D01*
X10586663Y-14622264D02*
X10577140Y-14603216D01*
X10577140Y-14603216D02*
X10567616Y-14565121D01*
X10567616Y-14565121D02*
X10567616Y-14517502D01*
X10567616Y-14517502D02*
X10577140Y-14479407D01*
X10577140Y-14479407D02*
X10586663Y-14460359D01*
X10586663Y-14460359D02*
X10596187Y-14450835D01*
X10596187Y-14450835D02*
X10615235Y-14441311D01*
X10805711Y-14441311D02*
X10824759Y-14441311D01*
X10824759Y-14441311D02*
X10843806Y-14450835D01*
X10843806Y-14450835D02*
X10853330Y-14460359D01*
X10853330Y-14460359D02*
X10862854Y-14479407D01*
X10862854Y-14479407D02*
X10872378Y-14517502D01*
X10872378Y-14517502D02*
X10872378Y-14565121D01*
X10872378Y-14565121D02*
X10862854Y-14603216D01*
X10862854Y-14603216D02*
X10853330Y-14622264D01*
X10853330Y-14622264D02*
X10843806Y-14631788D01*
X10843806Y-14631788D02*
X10824759Y-14641311D01*
X10824759Y-14641311D02*
X10805711Y-14641311D01*
X10805711Y-14641311D02*
X10786663Y-14631788D01*
X10786663Y-14631788D02*
X10777140Y-14622264D01*
X10777140Y-14622264D02*
X10767616Y-14603216D01*
X10767616Y-14603216D02*
X10758092Y-14565121D01*
X10758092Y-14565121D02*
X10758092Y-14517502D01*
X10758092Y-14517502D02*
X10767616Y-14479407D01*
X10767616Y-14479407D02*
X10777140Y-14460359D01*
X10777140Y-14460359D02*
X10786663Y-14450835D01*
X10786663Y-14450835D02*
X10805711Y-14441311D01*
X10958092Y-14641311D02*
X10958092Y-14507978D01*
X10958092Y-14527026D02*
X10967616Y-14517502D01*
X10967616Y-14517502D02*
X10986663Y-14507978D01*
X10986663Y-14507978D02*
X11015235Y-14507978D01*
X11015235Y-14507978D02*
X11034283Y-14517502D01*
X11034283Y-14517502D02*
X11043806Y-14536550D01*
X11043806Y-14536550D02*
X11043806Y-14641311D01*
X11043806Y-14536550D02*
X11053330Y-14517502D01*
X11053330Y-14517502D02*
X11072378Y-14507978D01*
X11072378Y-14507978D02*
X11100949Y-14507978D01*
X11100949Y-14507978D02*
X11119997Y-14517502D01*
X11119997Y-14517502D02*
X11129521Y-14536550D01*
X11129521Y-14536550D02*
X11129521Y-14641311D01*
X11224759Y-14641311D02*
X11224759Y-14507978D01*
X11224759Y-14527026D02*
X11234282Y-14517502D01*
X11234282Y-14517502D02*
X11253330Y-14507978D01*
X11253330Y-14507978D02*
X11281902Y-14507978D01*
X11281902Y-14507978D02*
X11300949Y-14517502D01*
X11300949Y-14517502D02*
X11310473Y-14536550D01*
X11310473Y-14536550D02*
X11310473Y-14641311D01*
X11310473Y-14536550D02*
X11319997Y-14517502D01*
X11319997Y-14517502D02*
X11339044Y-14507978D01*
X11339044Y-14507978D02*
X11367616Y-14507978D01*
X11367616Y-14507978D02*
X11386663Y-14517502D01*
X11386663Y-14517502D02*
X11396187Y-14536550D01*
X11396187Y-14536550D02*
X11396187Y-14641311D01*
X11786663Y-14431788D02*
X11615235Y-14688930D01*
X12043806Y-14441311D02*
X12062854Y-14441311D01*
X12062854Y-14441311D02*
X12081902Y-14450835D01*
X12081902Y-14450835D02*
X12091425Y-14460359D01*
X12091425Y-14460359D02*
X12100949Y-14479407D01*
X12100949Y-14479407D02*
X12110473Y-14517502D01*
X12110473Y-14517502D02*
X12110473Y-14565121D01*
X12110473Y-14565121D02*
X12100949Y-14603216D01*
X12100949Y-14603216D02*
X12091425Y-14622264D01*
X12091425Y-14622264D02*
X12081902Y-14631788D01*
X12081902Y-14631788D02*
X12062854Y-14641311D01*
X12062854Y-14641311D02*
X12043806Y-14641311D01*
X12043806Y-14641311D02*
X12024759Y-14631788D01*
X12024759Y-14631788D02*
X12015235Y-14622264D01*
X12015235Y-14622264D02*
X12005711Y-14603216D01*
X12005711Y-14603216D02*
X11996187Y-14565121D01*
X11996187Y-14565121D02*
X11996187Y-14517502D01*
X11996187Y-14517502D02*
X12005711Y-14479407D01*
X12005711Y-14479407D02*
X12015235Y-14460359D01*
X12015235Y-14460359D02*
X12024759Y-14450835D01*
X12024759Y-14450835D02*
X12043806Y-14441311D01*
X12196187Y-14622264D02*
X12205711Y-14631788D01*
X12205711Y-14631788D02*
X12196187Y-14641311D01*
X12196187Y-14641311D02*
X12186664Y-14631788D01*
X12186664Y-14631788D02*
X12196187Y-14622264D01*
X12196187Y-14622264D02*
X12196187Y-14641311D01*
X12329521Y-14441311D02*
X12348568Y-14441311D01*
X12348568Y-14441311D02*
X12367616Y-14450835D01*
X12367616Y-14450835D02*
X12377140Y-14460359D01*
X12377140Y-14460359D02*
X12386664Y-14479407D01*
X12386664Y-14479407D02*
X12396187Y-14517502D01*
X12396187Y-14517502D02*
X12396187Y-14565121D01*
X12396187Y-14565121D02*
X12386664Y-14603216D01*
X12386664Y-14603216D02*
X12377140Y-14622264D01*
X12377140Y-14622264D02*
X12367616Y-14631788D01*
X12367616Y-14631788D02*
X12348568Y-14641311D01*
X12348568Y-14641311D02*
X12329521Y-14641311D01*
X12329521Y-14641311D02*
X12310473Y-14631788D01*
X12310473Y-14631788D02*
X12300949Y-14622264D01*
X12300949Y-14622264D02*
X12291425Y-14603216D01*
X12291425Y-14603216D02*
X12281902Y-14565121D01*
X12281902Y-14565121D02*
X12281902Y-14517502D01*
X12281902Y-14517502D02*
X12291425Y-14479407D01*
X12291425Y-14479407D02*
X12300949Y-14460359D01*
X12300949Y-14460359D02*
X12310473Y-14450835D01*
X12310473Y-14450835D02*
X12329521Y-14441311D01*
X12586664Y-14641311D02*
X12472378Y-14641311D01*
X12529521Y-14641311D02*
X12529521Y-14441311D01*
X12529521Y-14441311D02*
X12510473Y-14469883D01*
X12510473Y-14469883D02*
X12491425Y-14488930D01*
X12491425Y-14488930D02*
X12472378Y-14498454D01*
X12767616Y-14441311D02*
X12672378Y-14441311D01*
X12672378Y-14441311D02*
X12662854Y-14536550D01*
X12662854Y-14536550D02*
X12672378Y-14527026D01*
X12672378Y-14527026D02*
X12691425Y-14517502D01*
X12691425Y-14517502D02*
X12739045Y-14517502D01*
X12739045Y-14517502D02*
X12758092Y-14527026D01*
X12758092Y-14527026D02*
X12767616Y-14536550D01*
X12767616Y-14536550D02*
X12777140Y-14555597D01*
X12777140Y-14555597D02*
X12777140Y-14603216D01*
X12777140Y-14603216D02*
X12767616Y-14622264D01*
X12767616Y-14622264D02*
X12758092Y-14631788D01*
X12758092Y-14631788D02*
X12739045Y-14641311D01*
X12739045Y-14641311D02*
X12691425Y-14641311D01*
X12691425Y-14641311D02*
X12672378Y-14631788D01*
X12672378Y-14631788D02*
X12662854Y-14622264D01*
X12843806Y-14441311D02*
X12977140Y-14441311D01*
X12977140Y-14441311D02*
X12891425Y-14641311D01*
X13043806Y-14441311D02*
X13043806Y-14479407D01*
X13119997Y-14441311D02*
X13119997Y-14479407D01*
X13415235Y-14717502D02*
X13405711Y-14707978D01*
X13405711Y-14707978D02*
X13386664Y-14679407D01*
X13386664Y-14679407D02*
X13377140Y-14660359D01*
X13377140Y-14660359D02*
X13367616Y-14631788D01*
X13367616Y-14631788D02*
X13358092Y-14584169D01*
X13358092Y-14584169D02*
X13358092Y-14546073D01*
X13358092Y-14546073D02*
X13367616Y-14498454D01*
X13367616Y-14498454D02*
X13377140Y-14469883D01*
X13377140Y-14469883D02*
X13386664Y-14450835D01*
X13386664Y-14450835D02*
X13405711Y-14422264D01*
X13405711Y-14422264D02*
X13415235Y-14412740D01*
X13596187Y-14641311D02*
X13481902Y-14641311D01*
X13539045Y-14641311D02*
X13539045Y-14441311D01*
X13539045Y-14441311D02*
X13519997Y-14469883D01*
X13519997Y-14469883D02*
X13500949Y-14488930D01*
X13500949Y-14488930D02*
X13481902Y-14498454D01*
X13834283Y-14641311D02*
X13834283Y-14441311D01*
X13919997Y-14641311D02*
X13919997Y-14536550D01*
X13919997Y-14536550D02*
X13910473Y-14517502D01*
X13910473Y-14517502D02*
X13891426Y-14507978D01*
X13891426Y-14507978D02*
X13862854Y-14507978D01*
X13862854Y-14507978D02*
X13843807Y-14517502D01*
X13843807Y-14517502D02*
X13834283Y-14527026D01*
X14043807Y-14641311D02*
X14024759Y-14631788D01*
X14024759Y-14631788D02*
X14015235Y-14622264D01*
X14015235Y-14622264D02*
X14005711Y-14603216D01*
X14005711Y-14603216D02*
X14005711Y-14546073D01*
X14005711Y-14546073D02*
X14015235Y-14527026D01*
X14015235Y-14527026D02*
X14024759Y-14517502D01*
X14024759Y-14517502D02*
X14043807Y-14507978D01*
X14043807Y-14507978D02*
X14072378Y-14507978D01*
X14072378Y-14507978D02*
X14091426Y-14517502D01*
X14091426Y-14517502D02*
X14100949Y-14527026D01*
X14100949Y-14527026D02*
X14110473Y-14546073D01*
X14110473Y-14546073D02*
X14110473Y-14603216D01*
X14110473Y-14603216D02*
X14100949Y-14622264D01*
X14100949Y-14622264D02*
X14091426Y-14631788D01*
X14091426Y-14631788D02*
X14072378Y-14641311D01*
X14072378Y-14641311D02*
X14043807Y-14641311D01*
X14224759Y-14641311D02*
X14205711Y-14631788D01*
X14205711Y-14631788D02*
X14196188Y-14612740D01*
X14196188Y-14612740D02*
X14196188Y-14441311D01*
X14377140Y-14631788D02*
X14358092Y-14641311D01*
X14358092Y-14641311D02*
X14319997Y-14641311D01*
X14319997Y-14641311D02*
X14300949Y-14631788D01*
X14300949Y-14631788D02*
X14291426Y-14612740D01*
X14291426Y-14612740D02*
X14291426Y-14536550D01*
X14291426Y-14536550D02*
X14300949Y-14517502D01*
X14300949Y-14517502D02*
X14319997Y-14507978D01*
X14319997Y-14507978D02*
X14358092Y-14507978D01*
X14358092Y-14507978D02*
X14377140Y-14517502D01*
X14377140Y-14517502D02*
X14386664Y-14536550D01*
X14386664Y-14536550D02*
X14386664Y-14555597D01*
X14386664Y-14555597D02*
X14291426Y-14574645D01*
X14453330Y-14717502D02*
X14462854Y-14707978D01*
X14462854Y-14707978D02*
X14481902Y-14679407D01*
X14481902Y-14679407D02*
X14491426Y-14660359D01*
X14491426Y-14660359D02*
X14500949Y-14631788D01*
X14500949Y-14631788D02*
X14510473Y-14584169D01*
X14510473Y-14584169D02*
X14510473Y-14546073D01*
X14510473Y-14546073D02*
X14500949Y-14498454D01*
X14500949Y-14498454D02*
X14491426Y-14469883D01*
X14491426Y-14469883D02*
X14481902Y-14450835D01*
X14481902Y-14450835D02*
X14462854Y-14422264D01*
X14462854Y-14422264D02*
X14453330Y-14412740D01*
D10*
X9840172Y-14813828D02*
G75*
G02*
X9750172Y-14813828I-45000J0D01*
G01*
X9750172Y-14813828D02*
G75*
G02*
X9840172Y-14813828I45000J0D01*
G01*
D11*
X10139044Y-14705311D02*
X10158092Y-14705311D01*
X10158092Y-14705311D02*
X10177140Y-14714835D01*
X10177140Y-14714835D02*
X10186663Y-14724359D01*
X10186663Y-14724359D02*
X10196187Y-14743407D01*
X10196187Y-14743407D02*
X10205711Y-14781502D01*
X10205711Y-14781502D02*
X10205711Y-14829121D01*
X10205711Y-14829121D02*
X10196187Y-14867216D01*
X10196187Y-14867216D02*
X10186663Y-14886264D01*
X10186663Y-14886264D02*
X10177140Y-14895788D01*
X10177140Y-14895788D02*
X10158092Y-14905311D01*
X10158092Y-14905311D02*
X10139044Y-14905311D01*
X10139044Y-14905311D02*
X10119997Y-14895788D01*
X10119997Y-14895788D02*
X10110473Y-14886264D01*
X10110473Y-14886264D02*
X10100949Y-14867216D01*
X10100949Y-14867216D02*
X10091425Y-14829121D01*
X10091425Y-14829121D02*
X10091425Y-14781502D01*
X10091425Y-14781502D02*
X10100949Y-14743407D01*
X10100949Y-14743407D02*
X10110473Y-14724359D01*
X10110473Y-14724359D02*
X10119997Y-14714835D01*
X10119997Y-14714835D02*
X10139044Y-14705311D01*
X10291425Y-14886264D02*
X10300949Y-14895788D01*
X10300949Y-14895788D02*
X10291425Y-14905311D01*
X10291425Y-14905311D02*
X10281902Y-14895788D01*
X10281902Y-14895788D02*
X10291425Y-14886264D01*
X10291425Y-14886264D02*
X10291425Y-14905311D01*
X10396187Y-14905311D02*
X10434282Y-14905311D01*
X10434282Y-14905311D02*
X10453330Y-14895788D01*
X10453330Y-14895788D02*
X10462854Y-14886264D01*
X10462854Y-14886264D02*
X10481902Y-14857692D01*
X10481902Y-14857692D02*
X10491425Y-14819597D01*
X10491425Y-14819597D02*
X10491425Y-14743407D01*
X10491425Y-14743407D02*
X10481902Y-14724359D01*
X10481902Y-14724359D02*
X10472378Y-14714835D01*
X10472378Y-14714835D02*
X10453330Y-14705311D01*
X10453330Y-14705311D02*
X10415235Y-14705311D01*
X10415235Y-14705311D02*
X10396187Y-14714835D01*
X10396187Y-14714835D02*
X10386663Y-14724359D01*
X10386663Y-14724359D02*
X10377140Y-14743407D01*
X10377140Y-14743407D02*
X10377140Y-14791026D01*
X10377140Y-14791026D02*
X10386663Y-14810073D01*
X10386663Y-14810073D02*
X10396187Y-14819597D01*
X10396187Y-14819597D02*
X10415235Y-14829121D01*
X10415235Y-14829121D02*
X10453330Y-14829121D01*
X10453330Y-14829121D02*
X10472378Y-14819597D01*
X10472378Y-14819597D02*
X10481902Y-14810073D01*
X10481902Y-14810073D02*
X10491425Y-14791026D01*
X10615235Y-14705311D02*
X10634283Y-14705311D01*
X10634283Y-14705311D02*
X10653330Y-14714835D01*
X10653330Y-14714835D02*
X10662854Y-14724359D01*
X10662854Y-14724359D02*
X10672378Y-14743407D01*
X10672378Y-14743407D02*
X10681902Y-14781502D01*
X10681902Y-14781502D02*
X10681902Y-14829121D01*
X10681902Y-14829121D02*
X10672378Y-14867216D01*
X10672378Y-14867216D02*
X10662854Y-14886264D01*
X10662854Y-14886264D02*
X10653330Y-14895788D01*
X10653330Y-14895788D02*
X10634283Y-14905311D01*
X10634283Y-14905311D02*
X10615235Y-14905311D01*
X10615235Y-14905311D02*
X10596187Y-14895788D01*
X10596187Y-14895788D02*
X10586663Y-14886264D01*
X10586663Y-14886264D02*
X10577140Y-14867216D01*
X10577140Y-14867216D02*
X10567616Y-14829121D01*
X10567616Y-14829121D02*
X10567616Y-14781502D01*
X10567616Y-14781502D02*
X10577140Y-14743407D01*
X10577140Y-14743407D02*
X10586663Y-14724359D01*
X10586663Y-14724359D02*
X10596187Y-14714835D01*
X10596187Y-14714835D02*
X10615235Y-14705311D01*
X10805711Y-14705311D02*
X10824759Y-14705311D01*
X10824759Y-14705311D02*
X10843806Y-14714835D01*
X10843806Y-14714835D02*
X10853330Y-14724359D01*
X10853330Y-14724359D02*
X10862854Y-14743407D01*
X10862854Y-14743407D02*
X10872378Y-14781502D01*
X10872378Y-14781502D02*
X10872378Y-14829121D01*
X10872378Y-14829121D02*
X10862854Y-14867216D01*
X10862854Y-14867216D02*
X10853330Y-14886264D01*
X10853330Y-14886264D02*
X10843806Y-14895788D01*
X10843806Y-14895788D02*
X10824759Y-14905311D01*
X10824759Y-14905311D02*
X10805711Y-14905311D01*
X10805711Y-14905311D02*
X10786663Y-14895788D01*
X10786663Y-14895788D02*
X10777140Y-14886264D01*
X10777140Y-14886264D02*
X10767616Y-14867216D01*
X10767616Y-14867216D02*
X10758092Y-14829121D01*
X10758092Y-14829121D02*
X10758092Y-14781502D01*
X10758092Y-14781502D02*
X10767616Y-14743407D01*
X10767616Y-14743407D02*
X10777140Y-14724359D01*
X10777140Y-14724359D02*
X10786663Y-14714835D01*
X10786663Y-14714835D02*
X10805711Y-14705311D01*
X10958092Y-14905311D02*
X10958092Y-14771978D01*
X10958092Y-14791026D02*
X10967616Y-14781502D01*
X10967616Y-14781502D02*
X10986663Y-14771978D01*
X10986663Y-14771978D02*
X11015235Y-14771978D01*
X11015235Y-14771978D02*
X11034283Y-14781502D01*
X11034283Y-14781502D02*
X11043806Y-14800550D01*
X11043806Y-14800550D02*
X11043806Y-14905311D01*
X11043806Y-14800550D02*
X11053330Y-14781502D01*
X11053330Y-14781502D02*
X11072378Y-14771978D01*
X11072378Y-14771978D02*
X11100949Y-14771978D01*
X11100949Y-14771978D02*
X11119997Y-14781502D01*
X11119997Y-14781502D02*
X11129521Y-14800550D01*
X11129521Y-14800550D02*
X11129521Y-14905311D01*
X11224759Y-14905311D02*
X11224759Y-14771978D01*
X11224759Y-14791026D02*
X11234282Y-14781502D01*
X11234282Y-14781502D02*
X11253330Y-14771978D01*
X11253330Y-14771978D02*
X11281902Y-14771978D01*
X11281902Y-14771978D02*
X11300949Y-14781502D01*
X11300949Y-14781502D02*
X11310473Y-14800550D01*
X11310473Y-14800550D02*
X11310473Y-14905311D01*
X11310473Y-14800550D02*
X11319997Y-14781502D01*
X11319997Y-14781502D02*
X11339044Y-14771978D01*
X11339044Y-14771978D02*
X11367616Y-14771978D01*
X11367616Y-14771978D02*
X11386663Y-14781502D01*
X11386663Y-14781502D02*
X11396187Y-14800550D01*
X11396187Y-14800550D02*
X11396187Y-14905311D01*
X11786663Y-14695788D02*
X11615235Y-14952930D01*
X12043806Y-14705311D02*
X12062854Y-14705311D01*
X12062854Y-14705311D02*
X12081902Y-14714835D01*
X12081902Y-14714835D02*
X12091425Y-14724359D01*
X12091425Y-14724359D02*
X12100949Y-14743407D01*
X12100949Y-14743407D02*
X12110473Y-14781502D01*
X12110473Y-14781502D02*
X12110473Y-14829121D01*
X12110473Y-14829121D02*
X12100949Y-14867216D01*
X12100949Y-14867216D02*
X12091425Y-14886264D01*
X12091425Y-14886264D02*
X12081902Y-14895788D01*
X12081902Y-14895788D02*
X12062854Y-14905311D01*
X12062854Y-14905311D02*
X12043806Y-14905311D01*
X12043806Y-14905311D02*
X12024759Y-14895788D01*
X12024759Y-14895788D02*
X12015235Y-14886264D01*
X12015235Y-14886264D02*
X12005711Y-14867216D01*
X12005711Y-14867216D02*
X11996187Y-14829121D01*
X11996187Y-14829121D02*
X11996187Y-14781502D01*
X11996187Y-14781502D02*
X12005711Y-14743407D01*
X12005711Y-14743407D02*
X12015235Y-14724359D01*
X12015235Y-14724359D02*
X12024759Y-14714835D01*
X12024759Y-14714835D02*
X12043806Y-14705311D01*
X12196187Y-14886264D02*
X12205711Y-14895788D01*
X12205711Y-14895788D02*
X12196187Y-14905311D01*
X12196187Y-14905311D02*
X12186664Y-14895788D01*
X12186664Y-14895788D02*
X12196187Y-14886264D01*
X12196187Y-14886264D02*
X12196187Y-14905311D01*
X12329521Y-14705311D02*
X12348568Y-14705311D01*
X12348568Y-14705311D02*
X12367616Y-14714835D01*
X12367616Y-14714835D02*
X12377140Y-14724359D01*
X12377140Y-14724359D02*
X12386664Y-14743407D01*
X12386664Y-14743407D02*
X12396187Y-14781502D01*
X12396187Y-14781502D02*
X12396187Y-14829121D01*
X12396187Y-14829121D02*
X12386664Y-14867216D01*
X12386664Y-14867216D02*
X12377140Y-14886264D01*
X12377140Y-14886264D02*
X12367616Y-14895788D01*
X12367616Y-14895788D02*
X12348568Y-14905311D01*
X12348568Y-14905311D02*
X12329521Y-14905311D01*
X12329521Y-14905311D02*
X12310473Y-14895788D01*
X12310473Y-14895788D02*
X12300949Y-14886264D01*
X12300949Y-14886264D02*
X12291425Y-14867216D01*
X12291425Y-14867216D02*
X12281902Y-14829121D01*
X12281902Y-14829121D02*
X12281902Y-14781502D01*
X12281902Y-14781502D02*
X12291425Y-14743407D01*
X12291425Y-14743407D02*
X12300949Y-14724359D01*
X12300949Y-14724359D02*
X12310473Y-14714835D01*
X12310473Y-14714835D02*
X12329521Y-14705311D01*
X12462854Y-14705311D02*
X12586664Y-14705311D01*
X12586664Y-14705311D02*
X12519997Y-14781502D01*
X12519997Y-14781502D02*
X12548568Y-14781502D01*
X12548568Y-14781502D02*
X12567616Y-14791026D01*
X12567616Y-14791026D02*
X12577140Y-14800550D01*
X12577140Y-14800550D02*
X12586664Y-14819597D01*
X12586664Y-14819597D02*
X12586664Y-14867216D01*
X12586664Y-14867216D02*
X12577140Y-14886264D01*
X12577140Y-14886264D02*
X12567616Y-14895788D01*
X12567616Y-14895788D02*
X12548568Y-14905311D01*
X12548568Y-14905311D02*
X12491425Y-14905311D01*
X12491425Y-14905311D02*
X12472378Y-14895788D01*
X12472378Y-14895788D02*
X12462854Y-14886264D01*
X12767616Y-14705311D02*
X12672378Y-14705311D01*
X12672378Y-14705311D02*
X12662854Y-14800550D01*
X12662854Y-14800550D02*
X12672378Y-14791026D01*
X12672378Y-14791026D02*
X12691425Y-14781502D01*
X12691425Y-14781502D02*
X12739045Y-14781502D01*
X12739045Y-14781502D02*
X12758092Y-14791026D01*
X12758092Y-14791026D02*
X12767616Y-14800550D01*
X12767616Y-14800550D02*
X12777140Y-14819597D01*
X12777140Y-14819597D02*
X12777140Y-14867216D01*
X12777140Y-14867216D02*
X12767616Y-14886264D01*
X12767616Y-14886264D02*
X12758092Y-14895788D01*
X12758092Y-14895788D02*
X12739045Y-14905311D01*
X12739045Y-14905311D02*
X12691425Y-14905311D01*
X12691425Y-14905311D02*
X12672378Y-14895788D01*
X12672378Y-14895788D02*
X12662854Y-14886264D01*
X12948568Y-14771978D02*
X12948568Y-14905311D01*
X12900949Y-14695788D02*
X12853330Y-14838645D01*
X12853330Y-14838645D02*
X12977140Y-14838645D01*
X13043806Y-14705311D02*
X13043806Y-14743407D01*
X13119997Y-14705311D02*
X13119997Y-14743407D01*
X13415235Y-14981502D02*
X13405711Y-14971978D01*
X13405711Y-14971978D02*
X13386664Y-14943407D01*
X13386664Y-14943407D02*
X13377140Y-14924359D01*
X13377140Y-14924359D02*
X13367616Y-14895788D01*
X13367616Y-14895788D02*
X13358092Y-14848169D01*
X13358092Y-14848169D02*
X13358092Y-14810073D01*
X13358092Y-14810073D02*
X13367616Y-14762454D01*
X13367616Y-14762454D02*
X13377140Y-14733883D01*
X13377140Y-14733883D02*
X13386664Y-14714835D01*
X13386664Y-14714835D02*
X13405711Y-14686264D01*
X13405711Y-14686264D02*
X13415235Y-14676740D01*
X13481902Y-14724359D02*
X13491426Y-14714835D01*
X13491426Y-14714835D02*
X13510473Y-14705311D01*
X13510473Y-14705311D02*
X13558092Y-14705311D01*
X13558092Y-14705311D02*
X13577140Y-14714835D01*
X13577140Y-14714835D02*
X13586664Y-14724359D01*
X13586664Y-14724359D02*
X13596187Y-14743407D01*
X13596187Y-14743407D02*
X13596187Y-14762454D01*
X13596187Y-14762454D02*
X13586664Y-14791026D01*
X13586664Y-14791026D02*
X13472378Y-14905311D01*
X13472378Y-14905311D02*
X13596187Y-14905311D01*
X13834283Y-14905311D02*
X13834283Y-14705311D01*
X13919997Y-14905311D02*
X13919997Y-14800550D01*
X13919997Y-14800550D02*
X13910473Y-14781502D01*
X13910473Y-14781502D02*
X13891426Y-14771978D01*
X13891426Y-14771978D02*
X13862854Y-14771978D01*
X13862854Y-14771978D02*
X13843807Y-14781502D01*
X13843807Y-14781502D02*
X13834283Y-14791026D01*
X14043807Y-14905311D02*
X14024759Y-14895788D01*
X14024759Y-14895788D02*
X14015235Y-14886264D01*
X14015235Y-14886264D02*
X14005711Y-14867216D01*
X14005711Y-14867216D02*
X14005711Y-14810073D01*
X14005711Y-14810073D02*
X14015235Y-14791026D01*
X14015235Y-14791026D02*
X14024759Y-14781502D01*
X14024759Y-14781502D02*
X14043807Y-14771978D01*
X14043807Y-14771978D02*
X14072378Y-14771978D01*
X14072378Y-14771978D02*
X14091426Y-14781502D01*
X14091426Y-14781502D02*
X14100949Y-14791026D01*
X14100949Y-14791026D02*
X14110473Y-14810073D01*
X14110473Y-14810073D02*
X14110473Y-14867216D01*
X14110473Y-14867216D02*
X14100949Y-14886264D01*
X14100949Y-14886264D02*
X14091426Y-14895788D01*
X14091426Y-14895788D02*
X14072378Y-14905311D01*
X14072378Y-14905311D02*
X14043807Y-14905311D01*
X14224759Y-14905311D02*
X14205711Y-14895788D01*
X14205711Y-14895788D02*
X14196188Y-14876740D01*
X14196188Y-14876740D02*
X14196188Y-14705311D01*
X14377140Y-14895788D02*
X14358092Y-14905311D01*
X14358092Y-14905311D02*
X14319997Y-14905311D01*
X14319997Y-14905311D02*
X14300949Y-14895788D01*
X14300949Y-14895788D02*
X14291426Y-14876740D01*
X14291426Y-14876740D02*
X14291426Y-14800550D01*
X14291426Y-14800550D02*
X14300949Y-14781502D01*
X14300949Y-14781502D02*
X14319997Y-14771978D01*
X14319997Y-14771978D02*
X14358092Y-14771978D01*
X14358092Y-14771978D02*
X14377140Y-14781502D01*
X14377140Y-14781502D02*
X14386664Y-14800550D01*
X14386664Y-14800550D02*
X14386664Y-14819597D01*
X14386664Y-14819597D02*
X14291426Y-14838645D01*
X14462854Y-14895788D02*
X14481902Y-14905311D01*
X14481902Y-14905311D02*
X14519997Y-14905311D01*
X14519997Y-14905311D02*
X14539045Y-14895788D01*
X14539045Y-14895788D02*
X14548569Y-14876740D01*
X14548569Y-14876740D02*
X14548569Y-14867216D01*
X14548569Y-14867216D02*
X14539045Y-14848169D01*
X14539045Y-14848169D02*
X14519997Y-14838645D01*
X14519997Y-14838645D02*
X14491426Y-14838645D01*
X14491426Y-14838645D02*
X14472378Y-14829121D01*
X14472378Y-14829121D02*
X14462854Y-14810073D01*
X14462854Y-14810073D02*
X14462854Y-14800550D01*
X14462854Y-14800550D02*
X14472378Y-14781502D01*
X14472378Y-14781502D02*
X14491426Y-14771978D01*
X14491426Y-14771978D02*
X14519997Y-14771978D01*
X14519997Y-14771978D02*
X14539045Y-14781502D01*
X14615235Y-14981502D02*
X14624759Y-14971978D01*
X14624759Y-14971978D02*
X14643807Y-14943407D01*
X14643807Y-14943407D02*
X14653330Y-14924359D01*
X14653330Y-14924359D02*
X14662854Y-14895788D01*
X14662854Y-14895788D02*
X14672378Y-14848169D01*
X14672378Y-14848169D02*
X14672378Y-14810073D01*
X14672378Y-14810073D02*
X14662854Y-14762454D01*
X14662854Y-14762454D02*
X14653330Y-14733883D01*
X14653330Y-14733883D02*
X14643807Y-14714835D01*
X14643807Y-14714835D02*
X14624759Y-14686264D01*
X14624759Y-14686264D02*
X14615235Y-14676740D01*
D10*
X9790172Y-15027828D02*
X9790172Y-15127828D01*
X9740172Y-15077828D02*
X9840172Y-15077828D01*
D11*
X10205711Y-15169311D02*
X10091425Y-15169311D01*
X10148568Y-15169311D02*
X10148568Y-14969311D01*
X10148568Y-14969311D02*
X10129521Y-14997883D01*
X10129521Y-14997883D02*
X10110473Y-15016930D01*
X10110473Y-15016930D02*
X10091425Y-15026454D01*
X10291425Y-15150264D02*
X10300949Y-15159788D01*
X10300949Y-15159788D02*
X10291425Y-15169311D01*
X10291425Y-15169311D02*
X10281902Y-15159788D01*
X10281902Y-15159788D02*
X10291425Y-15150264D01*
X10291425Y-15150264D02*
X10291425Y-15169311D01*
X10424759Y-14969311D02*
X10443806Y-14969311D01*
X10443806Y-14969311D02*
X10462854Y-14978835D01*
X10462854Y-14978835D02*
X10472378Y-14988359D01*
X10472378Y-14988359D02*
X10481902Y-15007407D01*
X10481902Y-15007407D02*
X10491425Y-15045502D01*
X10491425Y-15045502D02*
X10491425Y-15093121D01*
X10491425Y-15093121D02*
X10481902Y-15131216D01*
X10481902Y-15131216D02*
X10472378Y-15150264D01*
X10472378Y-15150264D02*
X10462854Y-15159788D01*
X10462854Y-15159788D02*
X10443806Y-15169311D01*
X10443806Y-15169311D02*
X10424759Y-15169311D01*
X10424759Y-15169311D02*
X10405711Y-15159788D01*
X10405711Y-15159788D02*
X10396187Y-15150264D01*
X10396187Y-15150264D02*
X10386663Y-15131216D01*
X10386663Y-15131216D02*
X10377140Y-15093121D01*
X10377140Y-15093121D02*
X10377140Y-15045502D01*
X10377140Y-15045502D02*
X10386663Y-15007407D01*
X10386663Y-15007407D02*
X10396187Y-14988359D01*
X10396187Y-14988359D02*
X10405711Y-14978835D01*
X10405711Y-14978835D02*
X10424759Y-14969311D01*
X10615235Y-14969311D02*
X10634283Y-14969311D01*
X10634283Y-14969311D02*
X10653330Y-14978835D01*
X10653330Y-14978835D02*
X10662854Y-14988359D01*
X10662854Y-14988359D02*
X10672378Y-15007407D01*
X10672378Y-15007407D02*
X10681902Y-15045502D01*
X10681902Y-15045502D02*
X10681902Y-15093121D01*
X10681902Y-15093121D02*
X10672378Y-15131216D01*
X10672378Y-15131216D02*
X10662854Y-15150264D01*
X10662854Y-15150264D02*
X10653330Y-15159788D01*
X10653330Y-15159788D02*
X10634283Y-15169311D01*
X10634283Y-15169311D02*
X10615235Y-15169311D01*
X10615235Y-15169311D02*
X10596187Y-15159788D01*
X10596187Y-15159788D02*
X10586663Y-15150264D01*
X10586663Y-15150264D02*
X10577140Y-15131216D01*
X10577140Y-15131216D02*
X10567616Y-15093121D01*
X10567616Y-15093121D02*
X10567616Y-15045502D01*
X10567616Y-15045502D02*
X10577140Y-15007407D01*
X10577140Y-15007407D02*
X10586663Y-14988359D01*
X10586663Y-14988359D02*
X10596187Y-14978835D01*
X10596187Y-14978835D02*
X10615235Y-14969311D01*
X10805711Y-14969311D02*
X10824759Y-14969311D01*
X10824759Y-14969311D02*
X10843806Y-14978835D01*
X10843806Y-14978835D02*
X10853330Y-14988359D01*
X10853330Y-14988359D02*
X10862854Y-15007407D01*
X10862854Y-15007407D02*
X10872378Y-15045502D01*
X10872378Y-15045502D02*
X10872378Y-15093121D01*
X10872378Y-15093121D02*
X10862854Y-15131216D01*
X10862854Y-15131216D02*
X10853330Y-15150264D01*
X10853330Y-15150264D02*
X10843806Y-15159788D01*
X10843806Y-15159788D02*
X10824759Y-15169311D01*
X10824759Y-15169311D02*
X10805711Y-15169311D01*
X10805711Y-15169311D02*
X10786663Y-15159788D01*
X10786663Y-15159788D02*
X10777140Y-15150264D01*
X10777140Y-15150264D02*
X10767616Y-15131216D01*
X10767616Y-15131216D02*
X10758092Y-15093121D01*
X10758092Y-15093121D02*
X10758092Y-15045502D01*
X10758092Y-15045502D02*
X10767616Y-15007407D01*
X10767616Y-15007407D02*
X10777140Y-14988359D01*
X10777140Y-14988359D02*
X10786663Y-14978835D01*
X10786663Y-14978835D02*
X10805711Y-14969311D01*
X10958092Y-15169311D02*
X10958092Y-15035978D01*
X10958092Y-15055026D02*
X10967616Y-15045502D01*
X10967616Y-15045502D02*
X10986663Y-15035978D01*
X10986663Y-15035978D02*
X11015235Y-15035978D01*
X11015235Y-15035978D02*
X11034283Y-15045502D01*
X11034283Y-15045502D02*
X11043806Y-15064550D01*
X11043806Y-15064550D02*
X11043806Y-15169311D01*
X11043806Y-15064550D02*
X11053330Y-15045502D01*
X11053330Y-15045502D02*
X11072378Y-15035978D01*
X11072378Y-15035978D02*
X11100949Y-15035978D01*
X11100949Y-15035978D02*
X11119997Y-15045502D01*
X11119997Y-15045502D02*
X11129521Y-15064550D01*
X11129521Y-15064550D02*
X11129521Y-15169311D01*
X11224759Y-15169311D02*
X11224759Y-15035978D01*
X11224759Y-15055026D02*
X11234282Y-15045502D01*
X11234282Y-15045502D02*
X11253330Y-15035978D01*
X11253330Y-15035978D02*
X11281902Y-15035978D01*
X11281902Y-15035978D02*
X11300949Y-15045502D01*
X11300949Y-15045502D02*
X11310473Y-15064550D01*
X11310473Y-15064550D02*
X11310473Y-15169311D01*
X11310473Y-15064550D02*
X11319997Y-15045502D01*
X11319997Y-15045502D02*
X11339044Y-15035978D01*
X11339044Y-15035978D02*
X11367616Y-15035978D01*
X11367616Y-15035978D02*
X11386663Y-15045502D01*
X11386663Y-15045502D02*
X11396187Y-15064550D01*
X11396187Y-15064550D02*
X11396187Y-15169311D01*
X11786663Y-14959788D02*
X11615235Y-15216930D01*
X12043806Y-14969311D02*
X12062854Y-14969311D01*
X12062854Y-14969311D02*
X12081902Y-14978835D01*
X12081902Y-14978835D02*
X12091425Y-14988359D01*
X12091425Y-14988359D02*
X12100949Y-15007407D01*
X12100949Y-15007407D02*
X12110473Y-15045502D01*
X12110473Y-15045502D02*
X12110473Y-15093121D01*
X12110473Y-15093121D02*
X12100949Y-15131216D01*
X12100949Y-15131216D02*
X12091425Y-15150264D01*
X12091425Y-15150264D02*
X12081902Y-15159788D01*
X12081902Y-15159788D02*
X12062854Y-15169311D01*
X12062854Y-15169311D02*
X12043806Y-15169311D01*
X12043806Y-15169311D02*
X12024759Y-15159788D01*
X12024759Y-15159788D02*
X12015235Y-15150264D01*
X12015235Y-15150264D02*
X12005711Y-15131216D01*
X12005711Y-15131216D02*
X11996187Y-15093121D01*
X11996187Y-15093121D02*
X11996187Y-15045502D01*
X11996187Y-15045502D02*
X12005711Y-15007407D01*
X12005711Y-15007407D02*
X12015235Y-14988359D01*
X12015235Y-14988359D02*
X12024759Y-14978835D01*
X12024759Y-14978835D02*
X12043806Y-14969311D01*
X12196187Y-15150264D02*
X12205711Y-15159788D01*
X12205711Y-15159788D02*
X12196187Y-15169311D01*
X12196187Y-15169311D02*
X12186664Y-15159788D01*
X12186664Y-15159788D02*
X12196187Y-15150264D01*
X12196187Y-15150264D02*
X12196187Y-15169311D01*
X12329521Y-14969311D02*
X12348568Y-14969311D01*
X12348568Y-14969311D02*
X12367616Y-14978835D01*
X12367616Y-14978835D02*
X12377140Y-14988359D01*
X12377140Y-14988359D02*
X12386664Y-15007407D01*
X12386664Y-15007407D02*
X12396187Y-15045502D01*
X12396187Y-15045502D02*
X12396187Y-15093121D01*
X12396187Y-15093121D02*
X12386664Y-15131216D01*
X12386664Y-15131216D02*
X12377140Y-15150264D01*
X12377140Y-15150264D02*
X12367616Y-15159788D01*
X12367616Y-15159788D02*
X12348568Y-15169311D01*
X12348568Y-15169311D02*
X12329521Y-15169311D01*
X12329521Y-15169311D02*
X12310473Y-15159788D01*
X12310473Y-15159788D02*
X12300949Y-15150264D01*
X12300949Y-15150264D02*
X12291425Y-15131216D01*
X12291425Y-15131216D02*
X12281902Y-15093121D01*
X12281902Y-15093121D02*
X12281902Y-15045502D01*
X12281902Y-15045502D02*
X12291425Y-15007407D01*
X12291425Y-15007407D02*
X12300949Y-14988359D01*
X12300949Y-14988359D02*
X12310473Y-14978835D01*
X12310473Y-14978835D02*
X12329521Y-14969311D01*
X12462854Y-14969311D02*
X12586664Y-14969311D01*
X12586664Y-14969311D02*
X12519997Y-15045502D01*
X12519997Y-15045502D02*
X12548568Y-15045502D01*
X12548568Y-15045502D02*
X12567616Y-15055026D01*
X12567616Y-15055026D02*
X12577140Y-15064550D01*
X12577140Y-15064550D02*
X12586664Y-15083597D01*
X12586664Y-15083597D02*
X12586664Y-15131216D01*
X12586664Y-15131216D02*
X12577140Y-15150264D01*
X12577140Y-15150264D02*
X12567616Y-15159788D01*
X12567616Y-15159788D02*
X12548568Y-15169311D01*
X12548568Y-15169311D02*
X12491425Y-15169311D01*
X12491425Y-15169311D02*
X12472378Y-15159788D01*
X12472378Y-15159788D02*
X12462854Y-15150264D01*
X12681902Y-15169311D02*
X12719997Y-15169311D01*
X12719997Y-15169311D02*
X12739045Y-15159788D01*
X12739045Y-15159788D02*
X12748568Y-15150264D01*
X12748568Y-15150264D02*
X12767616Y-15121692D01*
X12767616Y-15121692D02*
X12777140Y-15083597D01*
X12777140Y-15083597D02*
X12777140Y-15007407D01*
X12777140Y-15007407D02*
X12767616Y-14988359D01*
X12767616Y-14988359D02*
X12758092Y-14978835D01*
X12758092Y-14978835D02*
X12739045Y-14969311D01*
X12739045Y-14969311D02*
X12700949Y-14969311D01*
X12700949Y-14969311D02*
X12681902Y-14978835D01*
X12681902Y-14978835D02*
X12672378Y-14988359D01*
X12672378Y-14988359D02*
X12662854Y-15007407D01*
X12662854Y-15007407D02*
X12662854Y-15055026D01*
X12662854Y-15055026D02*
X12672378Y-15074073D01*
X12672378Y-15074073D02*
X12681902Y-15083597D01*
X12681902Y-15083597D02*
X12700949Y-15093121D01*
X12700949Y-15093121D02*
X12739045Y-15093121D01*
X12739045Y-15093121D02*
X12758092Y-15083597D01*
X12758092Y-15083597D02*
X12767616Y-15074073D01*
X12767616Y-15074073D02*
X12777140Y-15055026D01*
X12948568Y-15035978D02*
X12948568Y-15169311D01*
X12900949Y-14959788D02*
X12853330Y-15102645D01*
X12853330Y-15102645D02*
X12977140Y-15102645D01*
X13043806Y-14969311D02*
X13043806Y-15007407D01*
X13119997Y-14969311D02*
X13119997Y-15007407D01*
X13415235Y-15245502D02*
X13405711Y-15235978D01*
X13405711Y-15235978D02*
X13386664Y-15207407D01*
X13386664Y-15207407D02*
X13377140Y-15188359D01*
X13377140Y-15188359D02*
X13367616Y-15159788D01*
X13367616Y-15159788D02*
X13358092Y-15112169D01*
X13358092Y-15112169D02*
X13358092Y-15074073D01*
X13358092Y-15074073D02*
X13367616Y-15026454D01*
X13367616Y-15026454D02*
X13377140Y-14997883D01*
X13377140Y-14997883D02*
X13386664Y-14978835D01*
X13386664Y-14978835D02*
X13405711Y-14950264D01*
X13405711Y-14950264D02*
X13415235Y-14940740D01*
X13481902Y-14988359D02*
X13491426Y-14978835D01*
X13491426Y-14978835D02*
X13510473Y-14969311D01*
X13510473Y-14969311D02*
X13558092Y-14969311D01*
X13558092Y-14969311D02*
X13577140Y-14978835D01*
X13577140Y-14978835D02*
X13586664Y-14988359D01*
X13586664Y-14988359D02*
X13596187Y-15007407D01*
X13596187Y-15007407D02*
X13596187Y-15026454D01*
X13596187Y-15026454D02*
X13586664Y-15055026D01*
X13586664Y-15055026D02*
X13472378Y-15169311D01*
X13472378Y-15169311D02*
X13596187Y-15169311D01*
X13834283Y-15169311D02*
X13834283Y-14969311D01*
X13919997Y-15169311D02*
X13919997Y-15064550D01*
X13919997Y-15064550D02*
X13910473Y-15045502D01*
X13910473Y-15045502D02*
X13891426Y-15035978D01*
X13891426Y-15035978D02*
X13862854Y-15035978D01*
X13862854Y-15035978D02*
X13843807Y-15045502D01*
X13843807Y-15045502D02*
X13834283Y-15055026D01*
X14043807Y-15169311D02*
X14024759Y-15159788D01*
X14024759Y-15159788D02*
X14015235Y-15150264D01*
X14015235Y-15150264D02*
X14005711Y-15131216D01*
X14005711Y-15131216D02*
X14005711Y-15074073D01*
X14005711Y-15074073D02*
X14015235Y-15055026D01*
X14015235Y-15055026D02*
X14024759Y-15045502D01*
X14024759Y-15045502D02*
X14043807Y-15035978D01*
X14043807Y-15035978D02*
X14072378Y-15035978D01*
X14072378Y-15035978D02*
X14091426Y-15045502D01*
X14091426Y-15045502D02*
X14100949Y-15055026D01*
X14100949Y-15055026D02*
X14110473Y-15074073D01*
X14110473Y-15074073D02*
X14110473Y-15131216D01*
X14110473Y-15131216D02*
X14100949Y-15150264D01*
X14100949Y-15150264D02*
X14091426Y-15159788D01*
X14091426Y-15159788D02*
X14072378Y-15169311D01*
X14072378Y-15169311D02*
X14043807Y-15169311D01*
X14224759Y-15169311D02*
X14205711Y-15159788D01*
X14205711Y-15159788D02*
X14196188Y-15140740D01*
X14196188Y-15140740D02*
X14196188Y-14969311D01*
X14377140Y-15159788D02*
X14358092Y-15169311D01*
X14358092Y-15169311D02*
X14319997Y-15169311D01*
X14319997Y-15169311D02*
X14300949Y-15159788D01*
X14300949Y-15159788D02*
X14291426Y-15140740D01*
X14291426Y-15140740D02*
X14291426Y-15064550D01*
X14291426Y-15064550D02*
X14300949Y-15045502D01*
X14300949Y-15045502D02*
X14319997Y-15035978D01*
X14319997Y-15035978D02*
X14358092Y-15035978D01*
X14358092Y-15035978D02*
X14377140Y-15045502D01*
X14377140Y-15045502D02*
X14386664Y-15064550D01*
X14386664Y-15064550D02*
X14386664Y-15083597D01*
X14386664Y-15083597D02*
X14291426Y-15102645D01*
X14462854Y-15159788D02*
X14481902Y-15169311D01*
X14481902Y-15169311D02*
X14519997Y-15169311D01*
X14519997Y-15169311D02*
X14539045Y-15159788D01*
X14539045Y-15159788D02*
X14548569Y-15140740D01*
X14548569Y-15140740D02*
X14548569Y-15131216D01*
X14548569Y-15131216D02*
X14539045Y-15112169D01*
X14539045Y-15112169D02*
X14519997Y-15102645D01*
X14519997Y-15102645D02*
X14491426Y-15102645D01*
X14491426Y-15102645D02*
X14472378Y-15093121D01*
X14472378Y-15093121D02*
X14462854Y-15074073D01*
X14462854Y-15074073D02*
X14462854Y-15064550D01*
X14462854Y-15064550D02*
X14472378Y-15045502D01*
X14472378Y-15045502D02*
X14491426Y-15035978D01*
X14491426Y-15035978D02*
X14519997Y-15035978D01*
X14519997Y-15035978D02*
X14539045Y-15045502D01*
X14615235Y-15245502D02*
X14624759Y-15235978D01*
X14624759Y-15235978D02*
X14643807Y-15207407D01*
X14643807Y-15207407D02*
X14653330Y-15188359D01*
X14653330Y-15188359D02*
X14662854Y-15159788D01*
X14662854Y-15159788D02*
X14672378Y-15112169D01*
X14672378Y-15112169D02*
X14672378Y-15074073D01*
X14672378Y-15074073D02*
X14662854Y-15026454D01*
X14662854Y-15026454D02*
X14653330Y-14997883D01*
X14653330Y-14997883D02*
X14643807Y-14978835D01*
X14643807Y-14978835D02*
X14624759Y-14950264D01*
X14624759Y-14950264D02*
X14615235Y-14940740D01*
D12*
X9824550Y-15379545D02*
X9824550Y-15304110D01*
X9749115Y-15304110D01*
X9749115Y-15379545D01*
X9824550Y-15379545D01*
D11*
X10205711Y-15433311D02*
X10091425Y-15433311D01*
X10148568Y-15433311D02*
X10148568Y-15233311D01*
X10148568Y-15233311D02*
X10129521Y-15261883D01*
X10129521Y-15261883D02*
X10110473Y-15280930D01*
X10110473Y-15280930D02*
X10091425Y-15290454D01*
X10291425Y-15414264D02*
X10300949Y-15423788D01*
X10300949Y-15423788D02*
X10291425Y-15433311D01*
X10291425Y-15433311D02*
X10281902Y-15423788D01*
X10281902Y-15423788D02*
X10291425Y-15414264D01*
X10291425Y-15414264D02*
X10291425Y-15433311D01*
X10424759Y-15233311D02*
X10443806Y-15233311D01*
X10443806Y-15233311D02*
X10462854Y-15242835D01*
X10462854Y-15242835D02*
X10472378Y-15252359D01*
X10472378Y-15252359D02*
X10481902Y-15271407D01*
X10481902Y-15271407D02*
X10491425Y-15309502D01*
X10491425Y-15309502D02*
X10491425Y-15357121D01*
X10491425Y-15357121D02*
X10481902Y-15395216D01*
X10481902Y-15395216D02*
X10472378Y-15414264D01*
X10472378Y-15414264D02*
X10462854Y-15423788D01*
X10462854Y-15423788D02*
X10443806Y-15433311D01*
X10443806Y-15433311D02*
X10424759Y-15433311D01*
X10424759Y-15433311D02*
X10405711Y-15423788D01*
X10405711Y-15423788D02*
X10396187Y-15414264D01*
X10396187Y-15414264D02*
X10386663Y-15395216D01*
X10386663Y-15395216D02*
X10377140Y-15357121D01*
X10377140Y-15357121D02*
X10377140Y-15309502D01*
X10377140Y-15309502D02*
X10386663Y-15271407D01*
X10386663Y-15271407D02*
X10396187Y-15252359D01*
X10396187Y-15252359D02*
X10405711Y-15242835D01*
X10405711Y-15242835D02*
X10424759Y-15233311D01*
X10662854Y-15233311D02*
X10624759Y-15233311D01*
X10624759Y-15233311D02*
X10605711Y-15242835D01*
X10605711Y-15242835D02*
X10596187Y-15252359D01*
X10596187Y-15252359D02*
X10577140Y-15280930D01*
X10577140Y-15280930D02*
X10567616Y-15319026D01*
X10567616Y-15319026D02*
X10567616Y-15395216D01*
X10567616Y-15395216D02*
X10577140Y-15414264D01*
X10577140Y-15414264D02*
X10586663Y-15423788D01*
X10586663Y-15423788D02*
X10605711Y-15433311D01*
X10605711Y-15433311D02*
X10643806Y-15433311D01*
X10643806Y-15433311D02*
X10662854Y-15423788D01*
X10662854Y-15423788D02*
X10672378Y-15414264D01*
X10672378Y-15414264D02*
X10681902Y-15395216D01*
X10681902Y-15395216D02*
X10681902Y-15347597D01*
X10681902Y-15347597D02*
X10672378Y-15328550D01*
X10672378Y-15328550D02*
X10662854Y-15319026D01*
X10662854Y-15319026D02*
X10643806Y-15309502D01*
X10643806Y-15309502D02*
X10605711Y-15309502D01*
X10605711Y-15309502D02*
X10586663Y-15319026D01*
X10586663Y-15319026D02*
X10577140Y-15328550D01*
X10577140Y-15328550D02*
X10567616Y-15347597D01*
X10748568Y-15233311D02*
X10881902Y-15233311D01*
X10881902Y-15233311D02*
X10796187Y-15433311D01*
X10958092Y-15433311D02*
X10958092Y-15299978D01*
X10958092Y-15319026D02*
X10967616Y-15309502D01*
X10967616Y-15309502D02*
X10986663Y-15299978D01*
X10986663Y-15299978D02*
X11015235Y-15299978D01*
X11015235Y-15299978D02*
X11034283Y-15309502D01*
X11034283Y-15309502D02*
X11043806Y-15328550D01*
X11043806Y-15328550D02*
X11043806Y-15433311D01*
X11043806Y-15328550D02*
X11053330Y-15309502D01*
X11053330Y-15309502D02*
X11072378Y-15299978D01*
X11072378Y-15299978D02*
X11100949Y-15299978D01*
X11100949Y-15299978D02*
X11119997Y-15309502D01*
X11119997Y-15309502D02*
X11129521Y-15328550D01*
X11129521Y-15328550D02*
X11129521Y-15433311D01*
X11224759Y-15433311D02*
X11224759Y-15299978D01*
X11224759Y-15319026D02*
X11234282Y-15309502D01*
X11234282Y-15309502D02*
X11253330Y-15299978D01*
X11253330Y-15299978D02*
X11281902Y-15299978D01*
X11281902Y-15299978D02*
X11300949Y-15309502D01*
X11300949Y-15309502D02*
X11310473Y-15328550D01*
X11310473Y-15328550D02*
X11310473Y-15433311D01*
X11310473Y-15328550D02*
X11319997Y-15309502D01*
X11319997Y-15309502D02*
X11339044Y-15299978D01*
X11339044Y-15299978D02*
X11367616Y-15299978D01*
X11367616Y-15299978D02*
X11386663Y-15309502D01*
X11386663Y-15309502D02*
X11396187Y-15328550D01*
X11396187Y-15328550D02*
X11396187Y-15433311D01*
X11786663Y-15223788D02*
X11615235Y-15480930D01*
X12043806Y-15233311D02*
X12062854Y-15233311D01*
X12062854Y-15233311D02*
X12081902Y-15242835D01*
X12081902Y-15242835D02*
X12091425Y-15252359D01*
X12091425Y-15252359D02*
X12100949Y-15271407D01*
X12100949Y-15271407D02*
X12110473Y-15309502D01*
X12110473Y-15309502D02*
X12110473Y-15357121D01*
X12110473Y-15357121D02*
X12100949Y-15395216D01*
X12100949Y-15395216D02*
X12091425Y-15414264D01*
X12091425Y-15414264D02*
X12081902Y-15423788D01*
X12081902Y-15423788D02*
X12062854Y-15433311D01*
X12062854Y-15433311D02*
X12043806Y-15433311D01*
X12043806Y-15433311D02*
X12024759Y-15423788D01*
X12024759Y-15423788D02*
X12015235Y-15414264D01*
X12015235Y-15414264D02*
X12005711Y-15395216D01*
X12005711Y-15395216D02*
X11996187Y-15357121D01*
X11996187Y-15357121D02*
X11996187Y-15309502D01*
X11996187Y-15309502D02*
X12005711Y-15271407D01*
X12005711Y-15271407D02*
X12015235Y-15252359D01*
X12015235Y-15252359D02*
X12024759Y-15242835D01*
X12024759Y-15242835D02*
X12043806Y-15233311D01*
X12196187Y-15414264D02*
X12205711Y-15423788D01*
X12205711Y-15423788D02*
X12196187Y-15433311D01*
X12196187Y-15433311D02*
X12186664Y-15423788D01*
X12186664Y-15423788D02*
X12196187Y-15414264D01*
X12196187Y-15414264D02*
X12196187Y-15433311D01*
X12329521Y-15233311D02*
X12348568Y-15233311D01*
X12348568Y-15233311D02*
X12367616Y-15242835D01*
X12367616Y-15242835D02*
X12377140Y-15252359D01*
X12377140Y-15252359D02*
X12386664Y-15271407D01*
X12386664Y-15271407D02*
X12396187Y-15309502D01*
X12396187Y-15309502D02*
X12396187Y-15357121D01*
X12396187Y-15357121D02*
X12386664Y-15395216D01*
X12386664Y-15395216D02*
X12377140Y-15414264D01*
X12377140Y-15414264D02*
X12367616Y-15423788D01*
X12367616Y-15423788D02*
X12348568Y-15433311D01*
X12348568Y-15433311D02*
X12329521Y-15433311D01*
X12329521Y-15433311D02*
X12310473Y-15423788D01*
X12310473Y-15423788D02*
X12300949Y-15414264D01*
X12300949Y-15414264D02*
X12291425Y-15395216D01*
X12291425Y-15395216D02*
X12281902Y-15357121D01*
X12281902Y-15357121D02*
X12281902Y-15309502D01*
X12281902Y-15309502D02*
X12291425Y-15271407D01*
X12291425Y-15271407D02*
X12300949Y-15252359D01*
X12300949Y-15252359D02*
X12310473Y-15242835D01*
X12310473Y-15242835D02*
X12329521Y-15233311D01*
X12567616Y-15299978D02*
X12567616Y-15433311D01*
X12519997Y-15223788D02*
X12472378Y-15366645D01*
X12472378Y-15366645D02*
X12596187Y-15366645D01*
X12662854Y-15252359D02*
X12672378Y-15242835D01*
X12672378Y-15242835D02*
X12691425Y-15233311D01*
X12691425Y-15233311D02*
X12739045Y-15233311D01*
X12739045Y-15233311D02*
X12758092Y-15242835D01*
X12758092Y-15242835D02*
X12767616Y-15252359D01*
X12767616Y-15252359D02*
X12777140Y-15271407D01*
X12777140Y-15271407D02*
X12777140Y-15290454D01*
X12777140Y-15290454D02*
X12767616Y-15319026D01*
X12767616Y-15319026D02*
X12653330Y-15433311D01*
X12653330Y-15433311D02*
X12777140Y-15433311D01*
X12900949Y-15233311D02*
X12919997Y-15233311D01*
X12919997Y-15233311D02*
X12939045Y-15242835D01*
X12939045Y-15242835D02*
X12948568Y-15252359D01*
X12948568Y-15252359D02*
X12958092Y-15271407D01*
X12958092Y-15271407D02*
X12967616Y-15309502D01*
X12967616Y-15309502D02*
X12967616Y-15357121D01*
X12967616Y-15357121D02*
X12958092Y-15395216D01*
X12958092Y-15395216D02*
X12948568Y-15414264D01*
X12948568Y-15414264D02*
X12939045Y-15423788D01*
X12939045Y-15423788D02*
X12919997Y-15433311D01*
X12919997Y-15433311D02*
X12900949Y-15433311D01*
X12900949Y-15433311D02*
X12881902Y-15423788D01*
X12881902Y-15423788D02*
X12872378Y-15414264D01*
X12872378Y-15414264D02*
X12862854Y-15395216D01*
X12862854Y-15395216D02*
X12853330Y-15357121D01*
X12853330Y-15357121D02*
X12853330Y-15309502D01*
X12853330Y-15309502D02*
X12862854Y-15271407D01*
X12862854Y-15271407D02*
X12872378Y-15252359D01*
X12872378Y-15252359D02*
X12881902Y-15242835D01*
X12881902Y-15242835D02*
X12900949Y-15233311D01*
X13043806Y-15233311D02*
X13043806Y-15271407D01*
X13119997Y-15233311D02*
X13119997Y-15271407D01*
X13415235Y-15509502D02*
X13405711Y-15499978D01*
X13405711Y-15499978D02*
X13386664Y-15471407D01*
X13386664Y-15471407D02*
X13377140Y-15452359D01*
X13377140Y-15452359D02*
X13367616Y-15423788D01*
X13367616Y-15423788D02*
X13358092Y-15376169D01*
X13358092Y-15376169D02*
X13358092Y-15338073D01*
X13358092Y-15338073D02*
X13367616Y-15290454D01*
X13367616Y-15290454D02*
X13377140Y-15261883D01*
X13377140Y-15261883D02*
X13386664Y-15242835D01*
X13386664Y-15242835D02*
X13405711Y-15214264D01*
X13405711Y-15214264D02*
X13415235Y-15204740D01*
X13481902Y-15252359D02*
X13491426Y-15242835D01*
X13491426Y-15242835D02*
X13510473Y-15233311D01*
X13510473Y-15233311D02*
X13558092Y-15233311D01*
X13558092Y-15233311D02*
X13577140Y-15242835D01*
X13577140Y-15242835D02*
X13586664Y-15252359D01*
X13586664Y-15252359D02*
X13596187Y-15271407D01*
X13596187Y-15271407D02*
X13596187Y-15290454D01*
X13596187Y-15290454D02*
X13586664Y-15319026D01*
X13586664Y-15319026D02*
X13472378Y-15433311D01*
X13472378Y-15433311D02*
X13596187Y-15433311D01*
X13834283Y-15433311D02*
X13834283Y-15233311D01*
X13919997Y-15433311D02*
X13919997Y-15328550D01*
X13919997Y-15328550D02*
X13910473Y-15309502D01*
X13910473Y-15309502D02*
X13891426Y-15299978D01*
X13891426Y-15299978D02*
X13862854Y-15299978D01*
X13862854Y-15299978D02*
X13843807Y-15309502D01*
X13843807Y-15309502D02*
X13834283Y-15319026D01*
X14043807Y-15433311D02*
X14024759Y-15423788D01*
X14024759Y-15423788D02*
X14015235Y-15414264D01*
X14015235Y-15414264D02*
X14005711Y-15395216D01*
X14005711Y-15395216D02*
X14005711Y-15338073D01*
X14005711Y-15338073D02*
X14015235Y-15319026D01*
X14015235Y-15319026D02*
X14024759Y-15309502D01*
X14024759Y-15309502D02*
X14043807Y-15299978D01*
X14043807Y-15299978D02*
X14072378Y-15299978D01*
X14072378Y-15299978D02*
X14091426Y-15309502D01*
X14091426Y-15309502D02*
X14100949Y-15319026D01*
X14100949Y-15319026D02*
X14110473Y-15338073D01*
X14110473Y-15338073D02*
X14110473Y-15395216D01*
X14110473Y-15395216D02*
X14100949Y-15414264D01*
X14100949Y-15414264D02*
X14091426Y-15423788D01*
X14091426Y-15423788D02*
X14072378Y-15433311D01*
X14072378Y-15433311D02*
X14043807Y-15433311D01*
X14224759Y-15433311D02*
X14205711Y-15423788D01*
X14205711Y-15423788D02*
X14196188Y-15404740D01*
X14196188Y-15404740D02*
X14196188Y-15233311D01*
X14377140Y-15423788D02*
X14358092Y-15433311D01*
X14358092Y-15433311D02*
X14319997Y-15433311D01*
X14319997Y-15433311D02*
X14300949Y-15423788D01*
X14300949Y-15423788D02*
X14291426Y-15404740D01*
X14291426Y-15404740D02*
X14291426Y-15328550D01*
X14291426Y-15328550D02*
X14300949Y-15309502D01*
X14300949Y-15309502D02*
X14319997Y-15299978D01*
X14319997Y-15299978D02*
X14358092Y-15299978D01*
X14358092Y-15299978D02*
X14377140Y-15309502D01*
X14377140Y-15309502D02*
X14386664Y-15328550D01*
X14386664Y-15328550D02*
X14386664Y-15347597D01*
X14386664Y-15347597D02*
X14291426Y-15366645D01*
X14462854Y-15423788D02*
X14481902Y-15433311D01*
X14481902Y-15433311D02*
X14519997Y-15433311D01*
X14519997Y-15433311D02*
X14539045Y-15423788D01*
X14539045Y-15423788D02*
X14548569Y-15404740D01*
X14548569Y-15404740D02*
X14548569Y-15395216D01*
X14548569Y-15395216D02*
X14539045Y-15376169D01*
X14539045Y-15376169D02*
X14519997Y-15366645D01*
X14519997Y-15366645D02*
X14491426Y-15366645D01*
X14491426Y-15366645D02*
X14472378Y-15357121D01*
X14472378Y-15357121D02*
X14462854Y-15338073D01*
X14462854Y-15338073D02*
X14462854Y-15328550D01*
X14462854Y-15328550D02*
X14472378Y-15309502D01*
X14472378Y-15309502D02*
X14491426Y-15299978D01*
X14491426Y-15299978D02*
X14519997Y-15299978D01*
X14519997Y-15299978D02*
X14539045Y-15309502D01*
X14615235Y-15509502D02*
X14624759Y-15499978D01*
X14624759Y-15499978D02*
X14643807Y-15471407D01*
X14643807Y-15471407D02*
X14653330Y-15452359D01*
X14653330Y-15452359D02*
X14662854Y-15423788D01*
X14662854Y-15423788D02*
X14672378Y-15376169D01*
X14672378Y-15376169D02*
X14672378Y-15338073D01*
X14672378Y-15338073D02*
X14662854Y-15290454D01*
X14662854Y-15290454D02*
X14653330Y-15261883D01*
X14653330Y-15261883D02*
X14643807Y-15242835D01*
X14643807Y-15242835D02*
X14624759Y-15214264D01*
X14624759Y-15214264D02*
X14615235Y-15204740D01*
M02*
