%TF.GenerationSoftware,KiCad,Pcbnew,8.0.4*%
%TF.CreationDate,2024-11-02T17:57:13+02:00*%
%TF.ProjectId,ledB,6c656442-2e6b-4696-9361-645f70636258,rev?*%
%TF.SameCoordinates,Original*%
%TF.FileFunction,Legend,Top*%
%TF.FilePolarity,Positive*%
%FSLAX46Y46*%
G04 Gerber Fmt 4.6, Leading zero omitted, Abs format (unit mm)*
G04 Created by KiCad (PCBNEW 8.0.4) date 2024-11-02 17:57:13*
%MOMM*%
%LPD*%
G01*
G04 APERTURE LIST*
%ADD10C,0.150000*%
%ADD11C,0.120000*%
G04 APERTURE END LIST*
D10*
X107000000Y-120500000D02*
X107000000Y-121500000D01*
X107198518Y-114708364D02*
X108198518Y-114708364D01*
X107698518Y-114208364D02*
X107698518Y-115208364D01*
X106500000Y-121000000D02*
X107500000Y-121000000D01*
X112733234Y-135891644D02*
X113608700Y-136430392D01*
X113608700Y-136430392D02*
X113238311Y-135790628D01*
X113238311Y-135790628D02*
X113878074Y-136161018D01*
X113878074Y-136161018D02*
X113339326Y-135285552D01*
X114618852Y-135420239D02*
X114248463Y-135049850D01*
X114248463Y-135049850D02*
X114147448Y-135016178D01*
X114147448Y-135016178D02*
X114046432Y-135049850D01*
X114046432Y-135049850D02*
X113911745Y-135184537D01*
X113911745Y-135184537D02*
X113878074Y-135285552D01*
X114585180Y-135386567D02*
X114551509Y-135487583D01*
X114551509Y-135487583D02*
X114383150Y-135655941D01*
X114383150Y-135655941D02*
X114282135Y-135689613D01*
X114282135Y-135689613D02*
X114181119Y-135655941D01*
X114181119Y-135655941D02*
X114113776Y-135588598D01*
X114113776Y-135588598D02*
X114080104Y-135487583D01*
X114080104Y-135487583D02*
X114113776Y-135386567D01*
X114113776Y-135386567D02*
X114282135Y-135218209D01*
X114282135Y-135218209D02*
X114315806Y-135117193D01*
X114888226Y-135083522D02*
X114989242Y-135049850D01*
X114989242Y-135049850D02*
X115123929Y-134915163D01*
X115123929Y-134915163D02*
X115157600Y-134814147D01*
X115157600Y-134814147D02*
X115123929Y-134713132D01*
X115123929Y-134713132D02*
X115090257Y-134679460D01*
X115090257Y-134679460D02*
X114989242Y-134645789D01*
X114989242Y-134645789D02*
X114888226Y-134679460D01*
X114888226Y-134679460D02*
X114787211Y-134780476D01*
X114787211Y-134780476D02*
X114686196Y-134814147D01*
X114686196Y-134814147D02*
X114585181Y-134780476D01*
X114585181Y-134780476D02*
X114551509Y-134746804D01*
X114551509Y-134746804D02*
X114517837Y-134645789D01*
X114517837Y-134645789D02*
X114551509Y-134544773D01*
X114551509Y-134544773D02*
X114652524Y-134443758D01*
X114652524Y-134443758D02*
X114753539Y-134410086D01*
X115527990Y-133568292D02*
X116134081Y-133905010D01*
X116134081Y-133905010D02*
X115932051Y-133433605D01*
X115932051Y-133433605D02*
X116403455Y-133635636D01*
X116403455Y-133635636D02*
X116066738Y-133029544D01*
X116639158Y-132457125D02*
X117110562Y-132928529D01*
X116336112Y-132760170D02*
X116706501Y-133130560D01*
X116706501Y-133130560D02*
X116807516Y-133164231D01*
X116807516Y-133164231D02*
X116908532Y-133130560D01*
X116908532Y-133130560D02*
X117009547Y-133029544D01*
X117009547Y-133029544D02*
X117043219Y-132928529D01*
X117043219Y-132928529D02*
X117043219Y-132861186D01*
X116134081Y-132490796D02*
X116201425Y-132490796D01*
X116201425Y-132490796D02*
X116201425Y-132558140D01*
X116201425Y-132558140D02*
X116134081Y-132558140D01*
X116134081Y-132558140D02*
X116134081Y-132490796D01*
X116134081Y-132490796D02*
X116201425Y-132558140D01*
X116403455Y-132221422D02*
X116470799Y-132221422D01*
X116470799Y-132221422D02*
X116470799Y-132288766D01*
X116470799Y-132288766D02*
X116403455Y-132288766D01*
X116403455Y-132288766D02*
X116403455Y-132221422D01*
X116403455Y-132221422D02*
X116470799Y-132288766D01*
X117447280Y-132591812D02*
X116975875Y-132120407D01*
X117110562Y-132255094D02*
X117076891Y-132154079D01*
X117076891Y-132154079D02*
X117076891Y-132086735D01*
X117076891Y-132086735D02*
X117110562Y-131985720D01*
X117110562Y-131985720D02*
X117177906Y-131918377D01*
X118188059Y-131851033D02*
X117480952Y-131143926D01*
X118154387Y-131817361D02*
X118120715Y-131918376D01*
X118120715Y-131918376D02*
X117986028Y-132053063D01*
X117986028Y-132053063D02*
X117885013Y-132086735D01*
X117885013Y-132086735D02*
X117817669Y-132086735D01*
X117817669Y-132086735D02*
X117716654Y-132053063D01*
X117716654Y-132053063D02*
X117514624Y-131851033D01*
X117514624Y-131851033D02*
X117480952Y-131750017D01*
X117480952Y-131750017D02*
X117480952Y-131682674D01*
X117480952Y-131682674D02*
X117514624Y-131581659D01*
X117514624Y-131581659D02*
X117649311Y-131446972D01*
X117649311Y-131446972D02*
X117750326Y-131413300D01*
X118760478Y-131211269D02*
X118726807Y-131312285D01*
X118726807Y-131312285D02*
X118592120Y-131446972D01*
X118592120Y-131446972D02*
X118491104Y-131480643D01*
X118491104Y-131480643D02*
X118390089Y-131446972D01*
X118390089Y-131446972D02*
X118120715Y-131177598D01*
X118120715Y-131177598D02*
X118087043Y-131076582D01*
X118087043Y-131076582D02*
X118120715Y-130975567D01*
X118120715Y-130975567D02*
X118255402Y-130840880D01*
X118255402Y-130840880D02*
X118356417Y-130807208D01*
X118356417Y-130807208D02*
X118457433Y-130840880D01*
X118457433Y-130840880D02*
X118524776Y-130908224D01*
X118524776Y-130908224D02*
X118255402Y-131312285D01*
X113938980Y-136962702D02*
X114511400Y-137535122D01*
X114511400Y-137535122D02*
X114612415Y-137568794D01*
X114612415Y-137568794D02*
X114679758Y-137568794D01*
X114679758Y-137568794D02*
X114780774Y-137535122D01*
X114780774Y-137535122D02*
X114915461Y-137400435D01*
X114915461Y-137400435D02*
X114949132Y-137299420D01*
X114949132Y-137299420D02*
X114949132Y-137232076D01*
X114949132Y-137232076D02*
X114915461Y-137131061D01*
X114915461Y-137131061D02*
X114343041Y-136558641D01*
X114848117Y-136524969D02*
X115454209Y-136861687D01*
X115454209Y-136861687D02*
X115252178Y-136390282D01*
X115252178Y-136390282D02*
X115723583Y-136592313D01*
X115723583Y-136592313D02*
X115386865Y-135986221D01*
X116363346Y-135885206D02*
X116329674Y-135986221D01*
X116329674Y-135986221D02*
X116194987Y-136120908D01*
X116194987Y-136120908D02*
X116093972Y-136154580D01*
X116093972Y-136154580D02*
X115992957Y-136120908D01*
X115992957Y-136120908D02*
X115723583Y-135851534D01*
X115723583Y-135851534D02*
X115689911Y-135750519D01*
X115689911Y-135750519D02*
X115723583Y-135649504D01*
X115723583Y-135649504D02*
X115858270Y-135514817D01*
X115858270Y-135514817D02*
X115959285Y-135481145D01*
X115959285Y-135481145D02*
X116060300Y-135514817D01*
X116060300Y-135514817D02*
X116127644Y-135582160D01*
X116127644Y-135582160D02*
X115858270Y-135986221D01*
X116700064Y-134673023D02*
X116969438Y-134403649D01*
X116565377Y-134336305D02*
X117171468Y-134942397D01*
X117171468Y-134942397D02*
X117272483Y-134976068D01*
X117272483Y-134976068D02*
X117373499Y-134942397D01*
X117373499Y-134942397D02*
X117440842Y-134875053D01*
X117508186Y-133864900D02*
X117979590Y-134336305D01*
X117205140Y-134167946D02*
X117575529Y-134538335D01*
X117575529Y-134538335D02*
X117676545Y-134572007D01*
X117676545Y-134572007D02*
X117777560Y-134538335D01*
X117777560Y-134538335D02*
X117878575Y-134437320D01*
X117878575Y-134437320D02*
X117912247Y-134336305D01*
X117912247Y-134336305D02*
X117912247Y-134268961D01*
X117844904Y-133528183D02*
X118316308Y-133999587D01*
X117912247Y-133595526D02*
X117912247Y-133528183D01*
X117912247Y-133528183D02*
X117945919Y-133427168D01*
X117945919Y-133427168D02*
X118046934Y-133326152D01*
X118046934Y-133326152D02*
X118147949Y-133292481D01*
X118147949Y-133292481D02*
X118248965Y-133326152D01*
X118248965Y-133326152D02*
X118619354Y-133696542D01*
X119528491Y-132652717D02*
X119595835Y-132652717D01*
X119595835Y-132652717D02*
X119595835Y-132720061D01*
X119595835Y-132720061D02*
X119528491Y-132720061D01*
X119528491Y-132720061D02*
X119528491Y-132652717D01*
X119528491Y-132652717D02*
X119595835Y-132720061D01*
X118787713Y-132181312D02*
X118821385Y-132080297D01*
X118821385Y-132080297D02*
X118989743Y-131911938D01*
X118989743Y-131911938D02*
X119090759Y-131878267D01*
X119090759Y-131878267D02*
X119191774Y-131911938D01*
X119191774Y-131911938D02*
X119259117Y-131979282D01*
X119259117Y-131979282D02*
X119292789Y-132080297D01*
X119292789Y-132080297D02*
X119292789Y-132147641D01*
X119292789Y-132147641D02*
X119259117Y-132248656D01*
X119259117Y-132248656D02*
X119259117Y-132315999D01*
X119259117Y-132315999D02*
X119292789Y-132417015D01*
X119292789Y-132417015D02*
X119326461Y-132450686D01*
X109059527Y-110186015D02*
X109059527Y-111186015D01*
X109059527Y-110233634D02*
X109154765Y-110186015D01*
X109154765Y-110186015D02*
X109345241Y-110186015D01*
X109345241Y-110186015D02*
X109440479Y-110233634D01*
X109440479Y-110233634D02*
X109488098Y-110281253D01*
X109488098Y-110281253D02*
X109535717Y-110376491D01*
X109535717Y-110376491D02*
X109535717Y-110662205D01*
X109535717Y-110662205D02*
X109488098Y-110757443D01*
X109488098Y-110757443D02*
X109440479Y-110805063D01*
X109440479Y-110805063D02*
X109345241Y-110852682D01*
X109345241Y-110852682D02*
X109154765Y-110852682D01*
X109154765Y-110852682D02*
X109059527Y-110805063D01*
X109964289Y-110852682D02*
X109964289Y-110186015D01*
X109964289Y-109852682D02*
X109916670Y-109900301D01*
X109916670Y-109900301D02*
X109964289Y-109947920D01*
X109964289Y-109947920D02*
X110011908Y-109900301D01*
X110011908Y-109900301D02*
X109964289Y-109852682D01*
X109964289Y-109852682D02*
X109964289Y-109947920D01*
X110821431Y-110805063D02*
X110726193Y-110852682D01*
X110726193Y-110852682D02*
X110535717Y-110852682D01*
X110535717Y-110852682D02*
X110440479Y-110805063D01*
X110440479Y-110805063D02*
X110392860Y-110709824D01*
X110392860Y-110709824D02*
X110392860Y-110328872D01*
X110392860Y-110328872D02*
X110440479Y-110233634D01*
X110440479Y-110233634D02*
X110535717Y-110186015D01*
X110535717Y-110186015D02*
X110726193Y-110186015D01*
X110726193Y-110186015D02*
X110821431Y-110233634D01*
X110821431Y-110233634D02*
X110869050Y-110328872D01*
X110869050Y-110328872D02*
X110869050Y-110424110D01*
X110869050Y-110424110D02*
X110392860Y-110519348D01*
X111202384Y-110186015D02*
X111726193Y-110186015D01*
X111726193Y-110186015D02*
X111202384Y-110852682D01*
X111202384Y-110852682D02*
X111726193Y-110852682D01*
X112250003Y-110852682D02*
X112154765Y-110805063D01*
X112154765Y-110805063D02*
X112107146Y-110757443D01*
X112107146Y-110757443D02*
X112059527Y-110662205D01*
X112059527Y-110662205D02*
X112059527Y-110376491D01*
X112059527Y-110376491D02*
X112107146Y-110281253D01*
X112107146Y-110281253D02*
X112154765Y-110233634D01*
X112154765Y-110233634D02*
X112250003Y-110186015D01*
X112250003Y-110186015D02*
X112392860Y-110186015D01*
X112392860Y-110186015D02*
X112488098Y-110233634D01*
X112488098Y-110233634D02*
X112535717Y-110281253D01*
X112535717Y-110281253D02*
X112583336Y-110376491D01*
X112583336Y-110376491D02*
X112583336Y-110662205D01*
X112583336Y-110662205D02*
X112535717Y-110757443D01*
X112535717Y-110757443D02*
X112488098Y-110805063D01*
X112488098Y-110805063D02*
X112392860Y-110852682D01*
X112392860Y-110852682D02*
X112250003Y-110852682D01*
X100349405Y-131550057D02*
X100397024Y-131502438D01*
X100397024Y-131502438D02*
X100492262Y-131454819D01*
X100492262Y-131454819D02*
X100730357Y-131454819D01*
X100730357Y-131454819D02*
X100825595Y-131502438D01*
X100825595Y-131502438D02*
X100873214Y-131550057D01*
X100873214Y-131550057D02*
X100920833Y-131645295D01*
X100920833Y-131645295D02*
X100920833Y-131740533D01*
X100920833Y-131740533D02*
X100873214Y-131883390D01*
X100873214Y-131883390D02*
X100301786Y-132454819D01*
X100301786Y-132454819D02*
X100920833Y-132454819D01*
X101301786Y-131550057D02*
X101349405Y-131502438D01*
X101349405Y-131502438D02*
X101444643Y-131454819D01*
X101444643Y-131454819D02*
X101682738Y-131454819D01*
X101682738Y-131454819D02*
X101777976Y-131502438D01*
X101777976Y-131502438D02*
X101825595Y-131550057D01*
X101825595Y-131550057D02*
X101873214Y-131645295D01*
X101873214Y-131645295D02*
X101873214Y-131740533D01*
X101873214Y-131740533D02*
X101825595Y-131883390D01*
X101825595Y-131883390D02*
X101254167Y-132454819D01*
X101254167Y-132454819D02*
X101873214Y-132454819D01*
X102492262Y-131454819D02*
X102587500Y-131454819D01*
X102587500Y-131454819D02*
X102682738Y-131502438D01*
X102682738Y-131502438D02*
X102730357Y-131550057D01*
X102730357Y-131550057D02*
X102777976Y-131645295D01*
X102777976Y-131645295D02*
X102825595Y-131835771D01*
X102825595Y-131835771D02*
X102825595Y-132073866D01*
X102825595Y-132073866D02*
X102777976Y-132264342D01*
X102777976Y-132264342D02*
X102730357Y-132359580D01*
X102730357Y-132359580D02*
X102682738Y-132407200D01*
X102682738Y-132407200D02*
X102587500Y-132454819D01*
X102587500Y-132454819D02*
X102492262Y-132454819D01*
X102492262Y-132454819D02*
X102397024Y-132407200D01*
X102397024Y-132407200D02*
X102349405Y-132359580D01*
X102349405Y-132359580D02*
X102301786Y-132264342D01*
X102301786Y-132264342D02*
X102254167Y-132073866D01*
X102254167Y-132073866D02*
X102254167Y-131835771D01*
X102254167Y-131835771D02*
X102301786Y-131645295D01*
X102301786Y-131645295D02*
X102349405Y-131550057D01*
X102349405Y-131550057D02*
X102397024Y-131502438D01*
X102397024Y-131502438D02*
X102492262Y-131454819D01*
X105405202Y-125854815D02*
X104929012Y-125854815D01*
X104929012Y-125854815D02*
X104929012Y-124854815D01*
X105738536Y-125854815D02*
X105738536Y-124854815D01*
X105738536Y-124854815D02*
X106071869Y-125569100D01*
X106071869Y-125569100D02*
X106405202Y-124854815D01*
X106405202Y-124854815D02*
X106405202Y-125854815D01*
X106738536Y-124854815D02*
X107071869Y-125854815D01*
X107071869Y-125854815D02*
X107405202Y-124854815D01*
X107643298Y-124854815D02*
X108262345Y-124854815D01*
X108262345Y-124854815D02*
X107929012Y-125235767D01*
X107929012Y-125235767D02*
X108071869Y-125235767D01*
X108071869Y-125235767D02*
X108167107Y-125283386D01*
X108167107Y-125283386D02*
X108214726Y-125331005D01*
X108214726Y-125331005D02*
X108262345Y-125426243D01*
X108262345Y-125426243D02*
X108262345Y-125664338D01*
X108262345Y-125664338D02*
X108214726Y-125759576D01*
X108214726Y-125759576D02*
X108167107Y-125807196D01*
X108167107Y-125807196D02*
X108071869Y-125854815D01*
X108071869Y-125854815D02*
X107786155Y-125854815D01*
X107786155Y-125854815D02*
X107690917Y-125807196D01*
X107690917Y-125807196D02*
X107643298Y-125759576D01*
X108643298Y-124950053D02*
X108690917Y-124902434D01*
X108690917Y-124902434D02*
X108786155Y-124854815D01*
X108786155Y-124854815D02*
X109024250Y-124854815D01*
X109024250Y-124854815D02*
X109119488Y-124902434D01*
X109119488Y-124902434D02*
X109167107Y-124950053D01*
X109167107Y-124950053D02*
X109214726Y-125045291D01*
X109214726Y-125045291D02*
X109214726Y-125140529D01*
X109214726Y-125140529D02*
X109167107Y-125283386D01*
X109167107Y-125283386D02*
X108595679Y-125854815D01*
X108595679Y-125854815D02*
X109214726Y-125854815D01*
X110167107Y-125854815D02*
X109595679Y-125854815D01*
X109881393Y-125854815D02*
X109881393Y-124854815D01*
X109881393Y-124854815D02*
X109786155Y-124997672D01*
X109786155Y-124997672D02*
X109690917Y-125092910D01*
X109690917Y-125092910D02*
X109595679Y-125140529D01*
X109738095Y-103454819D02*
X109738095Y-102454819D01*
X109738095Y-102931009D02*
X110309523Y-102931009D01*
X110309523Y-103454819D02*
X110309523Y-102454819D01*
X111309523Y-103454819D02*
X110738095Y-103454819D01*
X111023809Y-103454819D02*
X111023809Y-102454819D01*
X111023809Y-102454819D02*
X110928571Y-102597676D01*
X110928571Y-102597676D02*
X110833333Y-102692914D01*
X110833333Y-102692914D02*
X110738095Y-102740533D01*
X100619048Y-128303980D02*
X101238095Y-128303980D01*
X101238095Y-128303980D02*
X100904762Y-128684932D01*
X100904762Y-128684932D02*
X101047619Y-128684932D01*
X101047619Y-128684932D02*
X101142857Y-128732551D01*
X101142857Y-128732551D02*
X101190476Y-128780170D01*
X101190476Y-128780170D02*
X101238095Y-128875408D01*
X101238095Y-128875408D02*
X101238095Y-129113503D01*
X101238095Y-129113503D02*
X101190476Y-129208741D01*
X101190476Y-129208741D02*
X101142857Y-129256361D01*
X101142857Y-129256361D02*
X101047619Y-129303980D01*
X101047619Y-129303980D02*
X100761905Y-129303980D01*
X100761905Y-129303980D02*
X100666667Y-129256361D01*
X100666667Y-129256361D02*
X100619048Y-129208741D01*
X101666667Y-129303980D02*
X101666667Y-128303980D01*
X101666667Y-128303980D02*
X102000000Y-129018265D01*
X102000000Y-129018265D02*
X102333333Y-128303980D01*
X102333333Y-128303980D02*
X102333333Y-129303980D01*
X102714286Y-128303980D02*
X103333333Y-128303980D01*
X103333333Y-128303980D02*
X103000000Y-128684932D01*
X103000000Y-128684932D02*
X103142857Y-128684932D01*
X103142857Y-128684932D02*
X103238095Y-128732551D01*
X103238095Y-128732551D02*
X103285714Y-128780170D01*
X103285714Y-128780170D02*
X103333333Y-128875408D01*
X103333333Y-128875408D02*
X103333333Y-129113503D01*
X103333333Y-129113503D02*
X103285714Y-129208741D01*
X103285714Y-129208741D02*
X103238095Y-129256361D01*
X103238095Y-129256361D02*
X103142857Y-129303980D01*
X103142857Y-129303980D02*
X102857143Y-129303980D01*
X102857143Y-129303980D02*
X102761905Y-129256361D01*
X102761905Y-129256361D02*
X102714286Y-129208741D01*
X116182602Y-128957046D02*
X116801649Y-128957046D01*
X116801649Y-128957046D02*
X116468316Y-129337998D01*
X116468316Y-129337998D02*
X116611173Y-129337998D01*
X116611173Y-129337998D02*
X116706411Y-129385617D01*
X116706411Y-129385617D02*
X116754030Y-129433236D01*
X116754030Y-129433236D02*
X116801649Y-129528474D01*
X116801649Y-129528474D02*
X116801649Y-129766569D01*
X116801649Y-129766569D02*
X116754030Y-129861807D01*
X116754030Y-129861807D02*
X116706411Y-129909427D01*
X116706411Y-129909427D02*
X116611173Y-129957046D01*
X116611173Y-129957046D02*
X116325459Y-129957046D01*
X116325459Y-129957046D02*
X116230221Y-129909427D01*
X116230221Y-129909427D02*
X116182602Y-129861807D01*
X117230221Y-129957046D02*
X117230221Y-128957046D01*
X117230221Y-128957046D02*
X117563554Y-129671331D01*
X117563554Y-129671331D02*
X117896887Y-128957046D01*
X117896887Y-128957046D02*
X117896887Y-129957046D01*
X118277840Y-128957046D02*
X118896887Y-128957046D01*
X118896887Y-128957046D02*
X118563554Y-129337998D01*
X118563554Y-129337998D02*
X118706411Y-129337998D01*
X118706411Y-129337998D02*
X118801649Y-129385617D01*
X118801649Y-129385617D02*
X118849268Y-129433236D01*
X118849268Y-129433236D02*
X118896887Y-129528474D01*
X118896887Y-129528474D02*
X118896887Y-129766569D01*
X118896887Y-129766569D02*
X118849268Y-129861807D01*
X118849268Y-129861807D02*
X118801649Y-129909427D01*
X118801649Y-129909427D02*
X118706411Y-129957046D01*
X118706411Y-129957046D02*
X118420697Y-129957046D01*
X118420697Y-129957046D02*
X118325459Y-129909427D01*
X118325459Y-129909427D02*
X118277840Y-129861807D01*
X116166667Y-123050057D02*
X116214286Y-123002438D01*
X116214286Y-123002438D02*
X116309524Y-122954819D01*
X116309524Y-122954819D02*
X116547619Y-122954819D01*
X116547619Y-122954819D02*
X116642857Y-123002438D01*
X116642857Y-123002438D02*
X116690476Y-123050057D01*
X116690476Y-123050057D02*
X116738095Y-123145295D01*
X116738095Y-123145295D02*
X116738095Y-123240533D01*
X116738095Y-123240533D02*
X116690476Y-123383390D01*
X116690476Y-123383390D02*
X116119048Y-123954819D01*
X116119048Y-123954819D02*
X116738095Y-123954819D01*
X117166667Y-123954819D02*
X117166667Y-122954819D01*
X117166667Y-122954819D02*
X117500000Y-123669104D01*
X117500000Y-123669104D02*
X117833333Y-122954819D01*
X117833333Y-122954819D02*
X117833333Y-123954819D01*
X118261905Y-123050057D02*
X118309524Y-123002438D01*
X118309524Y-123002438D02*
X118404762Y-122954819D01*
X118404762Y-122954819D02*
X118642857Y-122954819D01*
X118642857Y-122954819D02*
X118738095Y-123002438D01*
X118738095Y-123002438D02*
X118785714Y-123050057D01*
X118785714Y-123050057D02*
X118833333Y-123145295D01*
X118833333Y-123145295D02*
X118833333Y-123240533D01*
X118833333Y-123240533D02*
X118785714Y-123383390D01*
X118785714Y-123383390D02*
X118214286Y-123954819D01*
X118214286Y-123954819D02*
X118833333Y-123954819D01*
X110941427Y-121322267D02*
X110941427Y-121988934D01*
X110703332Y-120941315D02*
X110465237Y-121655600D01*
X110465237Y-121655600D02*
X111084284Y-121655600D01*
X111369999Y-120988934D02*
X112036665Y-120988934D01*
X112036665Y-120988934D02*
X111608094Y-121988934D01*
X112417618Y-121322267D02*
X112417618Y-121988934D01*
X112417618Y-121417505D02*
X112465237Y-121369886D01*
X112465237Y-121369886D02*
X112560475Y-121322267D01*
X112560475Y-121322267D02*
X112703332Y-121322267D01*
X112703332Y-121322267D02*
X112798570Y-121369886D01*
X112798570Y-121369886D02*
X112846189Y-121465124D01*
X112846189Y-121465124D02*
X112846189Y-121988934D01*
D11*
%TO.C,Y1*%
X108130000Y-111670000D02*
X108130000Y-114330000D01*
X110730000Y-111670000D02*
X108130000Y-111670000D01*
X110730000Y-111670000D02*
X110730000Y-114330000D01*
X110730000Y-114330000D02*
X108130000Y-114330000D01*
X112000000Y-111670000D02*
X113330000Y-111670000D01*
X113330000Y-111670000D02*
X113330000Y-113000000D01*
%TO.C,220*%
X104860436Y-132765000D02*
X105314564Y-132765000D01*
X104860436Y-134235000D02*
X105314564Y-134235000D01*
%TO.C,3M3*%
X103765000Y-129314564D02*
X103765000Y-128860436D01*
X105235000Y-129314564D02*
X105235000Y-128860436D01*
%TO.C,D1*%
X111565000Y-132920000D02*
X111565000Y-132764000D01*
X111565000Y-135236000D02*
X111565000Y-135080000D01*
X108332665Y-132921392D02*
G75*
G02*
X111565000Y-132764484I1672335J-1078608D01*
G01*
X108963870Y-132920163D02*
G75*
G02*
X111045961Y-132920000I1041130J-1079837D01*
G01*
X111045961Y-135080000D02*
G75*
G02*
X108963870Y-135079837I-1040961J1080000D01*
G01*
X111565000Y-135235516D02*
G75*
G02*
X108332665Y-135078608I-1560000J1235516D01*
G01*
%TO.C,3M3*%
X114265000Y-129639564D02*
X114265000Y-129185436D01*
X115735000Y-129639564D02*
X115735000Y-129185436D01*
%TO.C,2M2*%
X114265000Y-123814564D02*
X114265000Y-123360436D01*
X115735000Y-123814564D02*
X115735000Y-123360436D01*
%TO.C,47n*%
X111265000Y-124261252D02*
X111265000Y-123738748D01*
X112735000Y-124261252D02*
X112735000Y-123738748D01*
%TD*%
M02*
